<svg xmlns="http://www.w3.org/2000/svg" xmlns:xlink="http://www.w3.org/1999/xlink" width="307.383" height="353.65" viewBox="0 0 307.383 353.65"><defs><clipPath id="a"><rect width="307.383" height="353.65" fill="none"/></clipPath></defs><g transform="translate(0 0)"><path d="M14.917,15.4l2.74,3.856,1.149-4.573Z" transform="translate(55.925 55.062)" fill="#0c1015"/><g transform="translate(0 0)"><g clip-path="url(#a)"><path d="M178.667,1.142s-34.156,13.773-77.341,46.917c-31.407,24.1-57.114,54.378-67.861,66.964,5.058,6.825,33.3,45.421,41.518,63.977-8.012,6.183-31.4,22.393-31.4,22.393,3.866,8.249,15.383,32.846,17.491,37.253,0,0,2.389-9.954,3.234-10.662s9.973,6.82,9.973,6.82,1.406-12.794,2.527-12.794,8.853,6.967,8.853,6.967L74.142,205.662C86.362,200.115,108,185.468,108,185.468c-4.5-8.387-26.415-51.32-26.415-51.32,8.43-5.12,60.837-33.553,78.68-40.52,2.527-13.507,9.27-44.927,11.659-57.722s6.744-34.764,6.744-34.764" transform="translate(125.467 4.281)" fill="#ffd900"/><path d="M26.838,114.339c6.445-4.1,64.77-38.53,69.267-41.945l-2.251-6.535c.845-7.114,1.406-12.2,2.389-12.623s9.693,7.043,9.693,7.043c.845-4.982,2.213-12.3,3.059-13.013s8.886,8.924,8.886,8.924,10.819,23.741,9.973,24.734S38.074,124.573,32.6,127.418s-10.676-9.95-5.761-13.079" transform="translate(93.246 177.067)" fill="#632b00"/><path d="M125.343,19.238C111.01,24.358,40,62.745,43.363,66.155c0,0,38.355-20.688,48.893-25.8s31.331-14.575,31.331-14.575Z" transform="translate(162.14 72.127)" fill="#ffaf00"/><path d="M75.415,39.042C67.2,44.162,37.692,62.5,42.118,63.781c0,0,12.224-6.188,19.809-10.239A120.445,120.445,0,0,0,77.238,43.378Z" transform="translate(156.223 146.376)" fill="#ffaf00"/><path d="M122.37,52.961c-18.541,9.171-90.4,47.131-93.778,49.05s-4.635,5.761,1.472,3.2,47-22.393,57.537-27.726,36.882-18.056,36.882-18.056Z" transform="translate(96.621 198.561)" fill="#431a00"/><path d="M62.067,51.54c-5.713-5.428-6.787-4.721-7.527-4.232-.508.332-1.933,1.4-2.612,12.3-7.4-7.8-8.872-7.29-9.6-7.015-.665.242-2.142.793-3.215,10.918-.095.94,2.356,5.343,2.422,4.545.351-4.308,1.054-12.049,1.862-12.4.665-.351,8.568,7.271,9.57,6.687,1.477-.85,2.265-11.778,3.025-12.063.822-.3,4.616,3.776,7.233,6.487.556.57-.218-4.341-1.159-5.229" transform="translate(146.637 176.136)" fill="#632b00"/><path d="M194.681,93.674s13.231-66.237,18.037-87.067c1.615-7,1.814-7.2-5.063-4.151C159.969,23.652,113.669,57.419,65.2,113.963c-2.218,2.588-2.246,3.03-.252,5.656,14.428,18.964,35.871,52.36,40.231,61.5-6.863,4.972-29.8,20-29.8,20-2.417,1.638-2.46,2.2-1.225,4.621,4.778,9.346,17.876,37.457,19.752,41-29.141,17.943-51.154,32.1-65.8,40.463-4.768,2.731-3.795,4.583,1.2,1.729,14.523-8.3,36.436-21.457,65.164-39.138,2.569-1.581,2.835-2.275,1.33-5.6-1.833-4.061-15.074-32.941-18.631-40.169,1.562-1.078,19.685-13.407,28.405-19.609,3.386-2.408,2.963-3.13,1.458-6.036-5.88-11.336-25.94-43.593-39.751-61.521,48.76-54.811,93.108-89.114,141.222-110.2-3.434,13.991-17.534,86.74-17.829,88.164-16.28,6.435-59.2,28.2-76.833,38.915-2.745,1.667-2.93,2.265-1.643,4.877,5.224,10.619,22.829,42.71,25.356,48.822a376.067,376.067,0,0,1-32.527,19.073c-1.168.594-1.183.978-.693,1.966,0,0,16.565,33.339,21.4,46.186-11.227,5.424-77.5,38.811-91.717,45.478-5.267,2.465-4.521,4.555.94,1.995,13.2-6.193,73.712-35.852,90.862-43.541,4.165-1.866,4.322-2.835,2.74-6.829-5.058-12.818-20.355-41.94-21.015-43.28a316.138,316.138,0,0,0,30.723-17.439c3.728-2.451,3.529-2.935,1.638-7.167-2.845-6.354-20.873-39.228-24.568-46.96,16.5-10.159,58.548-31.539,75.883-38.663,2.246-.926,2.755-1.5,3.457-4.583" transform="translate(93.734 2.174)" fill="#0c1015"/><path d="M8.97,84.216c0,35.5,30.927,57.152,77.972,57.152,47.112,0,77.132-22.079,77.132-59.071,0-36.426-35.021-65.259-77.341-65.259C54.377,17.038,8.97,37.3,8.97,84.216" transform="translate(33.63 63.878)" fill="#ffd900"/><path d="M41.424,84.649C27.228,75.283,15.873,61.9,4.755,43.7c0-13.858,3.79-33.268,10.116-38.383C21.4,10.219,51.91,38.334,61.655,71c3.372,11.3-10.538,20.046-20.232,13.649" transform="translate(17.827 19.938)" fill="#ffd900"/><path d="M33.874,76.639C43.867,42.621,67.333,13.7,80.659,3.7c3.163,4.692,9.484,14.077,6.953,46.495C80.659,62.354,64.853,82.823,54.106,91.352s-22.549-6.82-20.232-14.713" transform="translate(125.898 13.875)" fill="#ffd900"/><path d="M9.858,151.734c0,14.447,8.872,34.973,32.242,34.973,5.9,0,36.46-4.051,41.518-4.051s32.242,4.051,45.516,4.051c18.992,0,32.038-17.468,32.038-35.187,0-7.893-8.43-53.956-16.014-71.87S131.666,47.66,126.817,42.118,34.093,38.708,31.776,46.6,9.858,123.8,9.858,151.734" transform="translate(36.96 146.283)" fill="#ffd900"/><path d="M35.428,40.951C27.72,46.669,11.4,61.639,8.875,84.672s6.53,30.281,9.688,35.4S34.8,92.984,39.431,76.566s2.318-40.307-4-35.614" transform="translate(31.622 151.287)" fill="#ffd900"/><path d="M23.147,70.943C11.525,79.762,7.265,91.958,10.818,94.509c.209,1.7,2.74,2.455,6.639,1.491.527.964,6.217,1.6,21.6-6.183S55.6,79.577,57.179,77.231c5.509-8.173-25.912-12.452-34.033-6.288" transform="translate(35.995 255.009)" fill="#ffd900"/><path d="M33.271,80.969c5.88,12.4,28.486,20.745,33.406,18.446,2.318.214,4.213-.427,4.317-2.983,3.438-2.322,1.349-12.234-9.166-23.461-12.31-13.141-32.684-.712-28.557,8" transform="translate(122.707 252.13)" fill="#ffd900"/><path d="M.676,1.934c-1.9,1.733,3.818,30.371,21.1,58.092-.7-13.792,3.652-35.258,9.27-40.8C23.462,12.544,3.487-.626.676,1.934" transform="translate(1.224 6.03)" fill="#0c1015"/><path d="M71.288.656C74.613,3.344,68.942,28.795,50.6,62.7c1.126-12.509.138-37.675-7.029-45.64C50.871,10.672,67.774-2.189,71.288.656" transform="translate(163.342 0.94)" fill="#0c1015"/><path d="M10.967,70.771c4.5,6.54,16.86,10.947,26.975,10.947S68.181,78.341,79,78.341s30.594,3.377,41.978,3.377,29.36-7.96,33.016-16.347c-3.514,11.374-13.91,22.749-31.473,22.749s-32.879-4.412-42.149-4.412-26.7,3.985-44.115,3.985-25.29-16.921-25.29-16.921" transform="translate(41.118 245.089)" fill="#ffaf00"/><path d="M10.878,74.55c6.464-.993,17.425,3.272,25.432,11.8,5.481-2.845,12.5-7.395,15.734-11.8-8.43.855-29.364,1.14-33.719-5.827Z" transform="translate(40.784 257.656)" fill="#ffaf00"/><path d="M42.419,86.091C45.933,81.826,56.752,74.716,65.182,73.3A48.421,48.421,0,0,0,61.107,68.6c-3.234,2.845-8.43,5.827-11.659,5.97s-16.442,1.282-16.442,1.282c.983,2.56,9.413,10.235,9.413,10.235" transform="translate(123.746 257.21)" fill="#ffaf00"/><path d="M20.541,69.057c-1.9-2.132-11.8-12.367-12.015-18.341,0,10.448,4.213,26.021,9.489,29.858Z" transform="translate(31.966 190.144)" fill="#ffaf00"/><path d="M31.552,47.085c-4.032,0-7.841-2-7.841-3.709,0-1.282,17.2-2.047,17.2,0,0,1.52-4.816,3.714-9.356,3.709" transform="translate(88.897 157.885)" fill="#ffaf00"/><path d="M103.154,27.011c-12.082-6.682-26.32-10.225-41.869-10.225-16.1,0-30.347,3.543-42.781,10.795-4.436,2.588-3.058,4.113,1,2.028a91.121,91.121,0,0,1,41.779-9.774c15.349,0,29.388,3.415,41.014,9.617,4.213,2.251,4.668-.332.855-2.441" transform="translate(59.079 62.934)" fill="#0c1015"/><path d="M55.645,22.762A57.415,57.415,0,0,1,75.739,66.92c0,24.867-13.122,43.6-39.01,53.59-4.422,1.71-4.991-.047-.575-1.781,22.815-9,35.538-28.2,35.538-51.809A58.367,58.367,0,0,0,53.765,24.766c-3.286-3.225-1.62-5,1.881-2" transform="translate(124.15 79.588)" fill="#0c1015"/><path d="M29.965,24.625A59.4,59.4,0,0,0,12.583,67.283c0,21.1,10.975,37.927,30.632,47.791,4.469,2.237,3.253,4.165-1.444,2.009-22.065-10.1-33.23-27.636-33.23-49.8,0-17.8,6.535-32.789,19.457-44.59,2.9-2.645,4.782-.893,1.966,1.933" transform="translate(32.022 80.189)" fill="#0c1015"/><path d="M33.427,89.3c-.271.874,2.379,2.023,2.6,1.311C55.069,29.338,104.77.078,108.6,2.98c2.669,2.028-9.384,57.708-53.937,100.773-.736.712,1.263,2.783,2.037,2.042C109.476,55.112,114.681,3.972,110.317.658,102.9-4.98,52.994,25.686,33.427,89.3" transform="translate(125.253 -0.003)" fill="#0c1015"/><path d="M2.858,4.01C6.605,1.3,60.343,35.213,78.138,85.83c.3.864,2.945-.29,2.593-1.278C59.668,25.3,5.39-1.29,1.225,1.626c-6.06,4.241,9.973,64.831,57.114,99.159.988.722,3.044-1.32,2.275-1.9C17.1,66.163-1.71,7.311,2.858,4.01" transform="translate(0.001 5.288)" fill="#0c1015"/><path d="M44.771,24.746c7.694-.214,14.21,6.791,14.21,14.642,0,8.52-5.428,14.656-13.35,14.656S30.965,48.7,30.965,39.388c0-7.551,4.868-14.395,13.806-14.642" transform="translate(116.094 92.759)" fill="#0c1015"/><path d="M28.143,24.864c8.216,0,13.5,6.725,13.5,13.853,0,8.363-4.953,15.449-13.692,15.449-8.558,0-14.081-6.806-14.081-14.262,0-8.5,6.226-15.041,14.276-15.041" transform="translate(51.99 93.22)" fill="#0c1015"/><path d="M24.8,31.542c.033-.75,5.12-.769,5.139-.057.028.883-1.657,1.885-2.555,1.885s-2.626-.921-2.584-1.828" transform="translate(92.98 116.092)" fill="#0c1015"/><path d="M64.735,34.593c-1.477,1.919-2.883,2.555-6.6,2.555-2.517,0-10.482-2.821-14.742-2.821-3.747,0-12.224,2.707-14.6,2.707-3.115,0-4.892-1.054-6.259-2.921-1.235-1.676-2.707-.722-1.634,1.064a8.975,8.975,0,0,0,7.893,4.759c3.068,0,10.334-2.707,14.6-2.707,4.108,0,11.061,2.816,14.879,2.816,4.873,0,6.863-1.733,8.093-4.706,1.211-2.93.138-3.049-1.634-.746" transform="translate(76.967 123.684)" fill="#0c1015"/><path d="M43.38,5.5c6.217,8.221,9.289,34.441,5.4,45.987-.256.755,3.742-2.84,4.046-5.072,2.185-15.953-.9-34.389-7.167-42.676C45.175,3.1,42.9,4.865,43.38,5.5" transform="translate(162.394 13.509)" fill="#0c1015"/><path d="M13.88,5.254C7.929,10.573,3.118,27.394,4.98,42.426c.128,1.026,3.448,4.854,3.3,4.07-2.422-12.733,2.512-34.617,7.5-39.067.594-.532-1.306-2.7-1.9-2.175" transform="translate(17.147 19.389)" fill="#0c1015"/><path d="M15.482,31.733c6.782-2.869,15.492,4.251,18.745,12.486,3.666,9.275,1.838,19.932-4.07,22.207-5.718,2.2-13.963-3.823-17.881-14.105-2.973-7.8-2.451-18.194,3.206-20.588" transform="translate(39.329 116.546)" fill="#dc000c"/><path d="M56.976,31.124c5.348,2.042,6.459,13.151,2.313,22.8C54.958,64.012,47.3,71.026,40.653,68.4c-5.77-2.289-7.8-13.16-3.177-23.1,5.785-12.433,14.2-16.2,19.5-14.176" transform="translate(130.955 114.748)" fill="#dc000c"/><path d="M35.134,40.407C24.695,48.6,11.886,63.7,8.823,80.59,5.954,96.381,11.487,114.143,19.2,121.338c.579.541,1.173-2.978.755-3.519-5.528-7.224-9.608-23.547-7.162-37.011,3.025-16.66,17.145-32.285,25.019-38.887.608-.513-2.375-1.748-2.674-1.515" transform="translate(30.196 151.385)" fill="#0c1015"/><path d="M22.751,51.474c-5.481,15.359-12.21,49.259-13.108,65.534-.788,14.423,3.291,25.385,12.286,33.506,10.325,9.327,25.646,7.252,41.869,5.063,7.01-.95,14.257-2.422,21.433-2.55,2.921-.057,7.983,1.116,13.839,1.895,14.884,1.985,35.966,4.782,45.877-.936,12.661-7.309,19.453-20.778,18.75-35.895-.85-18.47-5.789-39.746-15.378-66.261-1.819-5.029-3.434-4.255-1.762.826,8.539,25.921,13.1,47.369,13.939,65.572.66,14.214-5.775,26.3-17.658,33.154-9.076,5.238-28.913,2.593-43.394.66-5.974-.793-11.127-1.482-14.267-1.425a187.364,187.364,0,0,0-21.761,2.08c-16.223,2.194-29.355,3.22-38.7-5.219-8.3-7.494-12.856-16.826-12.11-30.314.864-15.777,7.926-51.087,12.362-64.95,1.976-6.164-.043-6.834-2.218-.741" transform="translate(35.797 177.086)" fill="#0c1015"/><path d="M22.621,68.605C8.25,79.723,7.191,92.532,11.883,93.624c.755.176,1.178-1.852.432-2.071l.019,0c-1.776-.76-2.47-9.432,12.03-20.645.627-.489-1.116-2.8-1.743-2.308" transform="translate(35.196 256.962)" fill="#0c1015"/><path d="M12.371,83.742c-.926-.8,1.762-6.853,5.937-10.534,2.422-2.128,1.529-3.329-1.154-.959-6.43,5.656-8.81,12.2-6.706,13.763,1.686,1.249,5.4.95,6.829.1.679-.4-.765-2.907-1.449-2.508-.646.385-2.859.655-3.457.138" transform="translate(36.374 266.003)" fill="#0c1015"/><path d="M51.335,69.846c-6.426,9.28-36.517,20.93-37.386,19.22-.461-1.168,3.942-5.813,7.755-8.245,2.992-1.909,2.313-3.334-.912-1.278-8.582,5.466-11.441,9.009-9.247,11.384.831.9,2.194,1.263,4.179,1.121,9.261-.66,33-12.481,38.611-20.574.461-.655-2.541-2.28-3-1.629" transform="translate(40.634 261.301)" fill="#0c1015"/><path d="M38.812,70.525C46.6,78.5,49.688,87.727,48.828,90.818c-.228.807-.394,3.552.242,3.12,1.4-.945,2.194-3.538,2-6.074-.48-6.321-6.188-15.25-10.225-19.377-.556-.575-2.593,1.468-2.037,2.037" transform="translate(145.158 256.396)" fill="#0c1015"/><path d="M40.282,72.908c4.246,3.785,6.953,10.505,5.747,12.073-.408.508-1.164.38-1.957.114-.746-.256-1.187,2.759-.4,2.873,2.208.318,3.761-.085,4.626-1.206,2.831-3.69-2.446-10.933-6.958-14.96-2.413-2.147-3.467-1.045-1.054,1.107" transform="translate(145.905 264.846)" fill="#0c1015"/><path d="M32.578,70.595C43.44,87.754,64.887,92.365,68.221,90.181c2.8-1.828-3.923-9.275-9.185-12.619-2.93-1.857-3.771-.546-1.145,1.282,2.812,1.952,8.534,8.4,8.05,9.038-1.449,1.24-20.626-5.846-29.835-17.306-.413-.513-3.956-.655-3.529.019" transform="translate(122.009 262.965)" fill="#0c1015"/><path d="M38.54,25.142a6.337,6.337,0,0,1,6.487,6.4,6.192,6.192,0,0,1-5.97,6.288,6.45,6.45,0,0,1-6.568-6.093c0-3.348,2.451-6.6,6.051-6.6" transform="translate(121.808 94.262)" fill="#fff"/><path d="M22.192,25.232a6.192,6.192,0,0,1,5.951,6.492c0,3.766-2.4,6.592-5.941,6.592a6.414,6.414,0,0,1-6.34-6.568,6.348,6.348,0,0,1,6.331-6.516" transform="translate(59.466 94.599)" fill="#fff"/><path d="M38.009,75.453c7.171-2.527,22.758-12.538,22.758-19.761,0-.993-2.1-5.97-1.406-6.82a16.11,16.11,0,0,1,2.251-1.995s0-2.84.418-3.552a8.172,8.172,0,0,1,2.109-1.7s-.28-2.845.423-3.557a8.04,8.04,0,0,1,2.531-1.278s-.845-2.417-.285-3.267,7.447-.86,10.961,3.267,12.5,17.059,12.5,33.553c0,25.337-14.129,49.283-32.6,57.152-14.988,6.388-35.548-46.447-19.666-52.037" transform="translate(120.994 123.966)" fill="#ffd900"/><path d="M70.457,38.278c5.134,16.328-18.645,50.712-29.5,59.5-4.217,3.41-6.117,13.217-.423,9.807,12.139-7.281,25.195-22.834,29.716-35.828,5.267-15.14.209-33.482.209-33.482" transform="translate(138.632 143.512)" fill="#ffaf00"/><path d="M71.113,33.667c-3.073-1.482-6.744-1.059-7.755.6a3.689,3.689,0,0,0,.047,3.2,3.055,3.055,0,0,0-2.223,1.135,4.275,4.275,0,0,0-.271,3.543,3.889,3.889,0,0,0-2.147,1.164,6.218,6.218,0,0,0-.774,4.213,3.921,3.921,0,0,0-2.251,1.857,13.57,13.57,0,0,0,.066,8.169c-.351,5.761-14.319,16.385-21.215,18.341-2.389.674-2.08,2.451.418,2.028,8.7-1.472,23.409-13.089,23.608-19.947,0-.2-1.411-5.97-.413-7.452.28-.427,1.714-1.016,2.028-1.653.195-.394-.052-3.253.29-3.761.551-.826,1.738-1.225,1.976-1.7.2-.4-.551-2.137.209-3.41.451-.75,2.584-.793,2.769-.988s-.632-2.693-.185-3.457c.347-.461,2.194-.413,4.588.741C78.275,40.335,88.7,57.332,85.6,82.427c-1.99,16.086-13.958,34.071-29.787,44.752-3.011,2.033-2.1,3.4,1.045,1.6C76.247,117.69,86.738,99.591,88.823,82.712c3.462-28.02-9.171-44.927-17.71-49.045" transform="translate(123.566 122.819)" fill="#0c1015"/><path d="M57.117,61.468c-.408,0-.812-.01-1.211-.024-10.676-.37-23.9-6.967-32.147-16.038-5.685-6.25-8.482-12.989-8.093-19.486a24.4,24.4,0,0,1,.423-3.286l1.069-5.414,3.324,4.4C24.618,27.1,32.265,32.888,57.621,34.27c17.914.969,33.871-3.334,41.746-8.04l3.557-2.123.176,4.141a23.629,23.629,0,0,1-.024,2.465c-1.04,17.439-28.058,30.756-45.958,30.756M20.677,28.955c.632,5.348,3.89,10,6.734,13.132,7.309,8.031,19.367,14.1,28.671,14.428,14.433.494,38.649-10.292,41.76-23.95C88.567,36.758,73.649,40.087,57.35,39.2c-17.938-.978-29.379-4.113-36.673-10.244" transform="translate(58.602 64.561)" fill="#0c1015"/><path d="M56.329,56.035c-.408,0-.812,0-1.211-.019C40.4,55.5,20.487,43.44,15.842,28.071L20.5,26.442C25.283,38.463,43.169,49.79,53.541,49.8h.028c18.075,0,35.439-13.374,37.78-24.458l.271-1.3,1.23-.489A39.643,39.643,0,0,0,98.573,20.8l3.562-2.132.176,4.146c.033.836.024,1.662-.024,2.47-1.045,17.439-28.058,30.751-45.958,30.751M95.861,27.658A26.683,26.683,0,0,1,90.8,37.152c3.163-3.039,5.433-6.43,6.25-10.011-.385.171-.784.347-1.187.518" transform="translate(59.395 69.99)" fill="#0c1015"/><path d="M37.119,50.682l-1.857-1.088a6.59,6.59,0,0,1-1.183-.912,6.1,6.1,0,0,1-.893-1.026,5.763,5.763,0,0,1-.309-.494l-.413.594-1.909-.9s-.166-.076-.423-.228a6.874,6.874,0,0,1-.879-.6,5.864,5.864,0,0,1-1.729-2.161l-.7.817L24.976,43.4s-.161-.109-.4-.309a9.374,9.374,0,0,1-.86-.874,6.156,6.156,0,0,1-.5-.684q-.214-.342-.4-.712a5.437,5.437,0,0,1-.361-.988,3.791,3.791,0,0,1-.1-.461L21.566,40l-1.5-2.132a7.527,7.527,0,0,1-.793-1.505,6.921,6.921,0,0,1-.475-3.31l-1.05.484-.8-2.788s-.057-.195-.123-.527a9.594,9.594,0,0,1-.166-1.225,8.068,8.068,0,0,1,.627-3.785,5.679,5.679,0,0,1,1.852-2.284l.18-.589a15.9,15.9,0,0,1,.456-2.028l.138-.465.461-.579.784-.831,1.221.019a2.736,2.736,0,0,1,.926.228c.142.038.29.081.446.133a4.685,4.685,0,0,1,1.24.651,4.388,4.388,0,0,1,1.145,1.23,6.178,6.178,0,0,1,.8,2.536c.033.256.047.494.062.689.014.242.014.356.014.432V26l-.537.247a6.663,6.663,0,0,1,1.073,1.339,9.151,9.151,0,0,1,.6,1.168l.674,1.662-.461.385a6.106,6.106,0,0,1,1.449.983,7.505,7.505,0,0,1,.651.655l1.562,1.824-.157.19a6.839,6.839,0,0,1,1.078.332c.38.161.679.309.879.418.256.142.413.252.413.252l1.852,1.287-.242.437a5.366,5.366,0,0,1,.546.038,6.851,6.851,0,0,1,1.439.332,7.451,7.451,0,0,1,.993.432,4.309,4.309,0,0,1,.465.261L41.161,39.5l-1.059,2a6.4,6.4,0,0,1-.931,1.24,1.458,1.458,0,0,1-.119.123,4.75,4.75,0,0,1,.6,1.458,5.3,5.3,0,0,1-.423,3.358,7.123,7.123,0,0,1-.774,1.306ZM24.439,24.158l0,.01.09-.01ZM24.1,22.5h0l.052-.071a1.113,1.113,0,0,0-.451-.242Z" transform="translate(62.391 69.097)" fill="#0c1015"/><path d="M26.947,49.593l-.888-2.023a6.3,6.3,0,0,1-.432-1.558,5.387,5.387,0,0,1,.579-3.5,5.5,5.5,0,0,1,1.2-1.43l-.095-.161a6.358,6.358,0,0,1-.622-1.529l-.508-2.137,2.085-.765s.2-.071.532-.161a10.12,10.12,0,0,1,1.092-.214,7.87,7.87,0,0,1,1.586-.052,5.877,5.877,0,0,1,1.363.266l-.223-.888,2.052-.8s.176-.071.475-.157c.252-.071.594-.157.974-.228a7.408,7.408,0,0,1,2.018-.095l-.275-.556,2-1.373c.247-.161.541-.347.888-.532a6.675,6.675,0,0,1,2.365-.769l-.541-.727,1.2-1.491a10.231,10.231,0,0,1,.955-1.016A7.039,7.039,0,0,1,46.5,26.465l-.613-.408.6-1.786c.038-.119.071-.223.119-.351l.052-.142c.076-.195.166-.427.28-.679a6.724,6.724,0,0,1,1.543-2.275l.01-.014a5.134,5.134,0,0,1,2.85-1.287l.038-.01.247-.209,1.149.128a2.574,2.574,0,0,1,1.942,1.358l.28.537.014.665a16.556,16.556,0,0,1-.242,2.721,5.49,5.49,0,0,1,1.358,2.916,8.171,8.171,0,0,1-.537,4.013,11.079,11.079,0,0,1-.579,1.254c-.157.285-.271.465-.271.465L53.32,35.579l-1.3-.95c-.009.209-.024.418-.052.622a7.374,7.374,0,0,1-1.562,3.443A8.664,8.664,0,0,1,49.15,40l-1.919,1.577L46.357,40.5c-.028.09-.062.176-.095.266a5.992,5.992,0,0,1-.484.95,5.8,5.8,0,0,1-.67.888c-.18.2-.394.4-.6.594a6.275,6.275,0,0,1-.727.57,9.979,9.979,0,0,1-.978.6c-.4.195-.584.271-.584.271l-2.1.826-.655-1.287-.029.047A6.552,6.552,0,0,1,36.65,46.5a8.355,8.355,0,0,1-1.045.4c-.309.095-.5.138-.5.138l-2.123.48-.366-.983a6.154,6.154,0,0,1-.959.969,7.107,7.107,0,0,1-1.216.807,7.841,7.841,0,0,1-1.387.617Z" transform="translate(95.81 72.37)" fill="#0c1015"/><path d="M63.609,48.812c-1.757,0-3.529-.043-5.324-.142-21.775-1.187-33.981-5.552-40.81-14.6-1.919-2.541-2.185-6.782-2.071-9.893l.342-9.484,4.322,8.449a7.927,7.927,0,0,0,.541.926l-.356.285.356-.285c5.329,6.692,13.417,11.1,37.262,12.4,19.063,1.045,36.64-2.066,43.721-7.727a15.085,15.085,0,0,0,2.959-3.068l5.7-7.584-1.282,9.4c-.646,4.725-1.881,9.9-6.136,12.443-7.708,4.611-22.44,8.876-39.224,8.876M23.26,33.259c4.607,4.759,13.269,9.28,35.291,10.481,17.914.969,33.876-3.334,41.75-8.04a4.758,4.758,0,0,0,1.159-.978C92.285,39.8,75.743,42.391,57.606,41.4c-18.156-.988-27.968-3.823-34.346-8.14" transform="translate(57.671 55.09)" fill="#0c1015"/><path d="M31.374,42.342l1.42-4.82a19.926,19.926,0,0,0,.6-5.576l0-1.71,1.6-.608a24.841,24.841,0,0,0,6.649-3.567,15.086,15.086,0,0,0,2.959-3.068l5.7-7.584-1.282,9.4c-.646,4.725-1.881,9.9-6.136,12.448a46.056,46.056,0,0,1-6.82,3.258ZM38.3,33.613c-.01.18-.014.361-.024.537q1.1-.556,2.061-1.13a4.8,4.8,0,0,0,1.145-.955A34.866,34.866,0,0,1,38.3,33.613" transform="translate(117.628 57.771)" fill="#0c1015"/><path d="M76.686,67.339c-2.484,0-5.015-.071-7.58-.209-25.688-1.4-34.679-6.492-40.857-14.257a9.075,9.075,0,0,1-1.111-1.824l-.256-.546.347-9.166a63.41,63.41,0,0,1-7.565.8,6.959,6.959,0,0,1-4.968-12.186C21.866,23.408,48.381,7.831,71.738,7.831h.4c28.1.218,52.873,14.471,59.337,19.448,4.982,3.833,4.35,7.9,3.847,9.465a8.85,8.85,0,0,1-8.306,5.78,40.915,40.915,0,0,1-6.145-.541l-.4,11.731-.423.6a19.758,19.758,0,0,1-3.866,4.013c-7.072,5.656-22.108,9.009-39.49,9.009m-44.823-17.9a3.853,3.853,0,0,0,.247.356c5.329,6.7,13.421,11.1,37.267,12.4,19.059,1.045,36.635-2.066,43.716-7.727a15.657,15.657,0,0,0,2.493-2.446l.427-12.5-.423-.8,1.857-2.493,2.826.551a40.708,40.708,0,0,0,6.554.807,4.06,4.06,0,0,0,3.79-2.346c.537-1.672-1.121-3.258-2.156-4.056C120.759,25.261,96.852,12.96,72.1,12.77,50.29,12.58,24.592,27.6,18.024,33.6a2.046,2.046,0,0,0-.641,2.3,2.22,2.22,0,0,0,2.223,1.3,55.2,55.2,0,0,0,7.817-.978l.01-.214,3.576-.413,1.757,2.436-.508.988Zm86.184-8.154-.019.09Z" transform="translate(46.166 29.36)" fill="#0c1015"/><path d="M76.686,67.339c-2.484,0-5.015-.071-7.58-.209-25.688-1.4-34.679-6.492-40.857-14.257a9.075,9.075,0,0,1-1.111-1.824l-.256-.546.347-9.166a63.41,63.41,0,0,1-7.565.8,6.959,6.959,0,0,1-4.968-12.186C21.866,23.408,48.381,7.831,71.738,7.831h.4c28.1.218,52.873,14.471,59.337,19.448,4.982,3.833,4.35,7.9,3.847,9.465a8.85,8.85,0,0,1-8.306,5.78,40.915,40.915,0,0,1-6.145-.541l-.4,11.731-.423.6a19.758,19.758,0,0,1-3.866,4.013c-7.072,5.656-22.108,9.009-39.49,9.009m-44.823-17.9a3.853,3.853,0,0,0,.247.356c5.329,6.7,13.421,11.1,37.267,12.4,19.059,1.045,36.635-2.066,43.716-7.727a15.657,15.657,0,0,0,2.493-2.446l.427-12.5-.423-.8,1.857-2.493,2.826.551a40.708,40.708,0,0,0,6.554.807,4.06,4.06,0,0,0,3.79-2.346c.537-1.672-1.121-3.258-2.156-4.056C120.759,25.261,96.852,12.96,72.1,12.77,50.29,12.58,24.592,27.6,18.024,33.6a2.046,2.046,0,0,0-.641,2.3,2.22,2.22,0,0,0,2.223,1.3,55.2,55.2,0,0,0,7.817-.978l.01-.214,3.576-.413,1.757,2.436-.508.988Zm86.184-8.154-.019.09Z" transform="translate(46.166 29.36)" fill="#0c1015"/><path d="M17.328,20.6a7.446,7.446,0,0,1-4.417-1.387l2.118-4.374a3.207,3.207,0,0,0,.85.1c3.215-.038,10.306-.727,11.161-.888l2.536-.48.822,5.286-2.308.446A83.442,83.442,0,0,1,17.423,20.6h-.095" transform="translate(48.406 50.899)" fill="#0c1015"/><path d="M51.456,22.477c-14.656,0-27.8-.936-30.832-3.358-.423-.337-1.482-.679-4.122-.38l-.56-4.906c2.436-.28,5.519-.366,7.76,1.425,4.83,3.571,63.407,2.778,72.031-.974,2.332-1.007,5.471-.5,9.655.318l-.959,4.844c-2.1-.413-5.633-1.111-6.725-.636-4.626,2.014-26.771,3.666-46.248,3.666" transform="translate(59.766 51.287)" fill="#0c1015"/><path d="M56.583,58.671q-3.8,0-7.713-.214c-14.666-.8-24.273-2.736-31.16-6.269l2.142-4.445c5.5,2.474,12.847,3.244,27.232,4.027,14.993.817,28.272-.465,36.892-3.533-.1-2.246.081-5.191.275-8.264.114-1.8.233-3.647.285-5.276a13.4,13.4,0,0,0-3.909-.589,2.5,2.5,0,0,1-2.522-2.341l-.119-2.237,2.218-.337a28.982,28.982,0,0,0,4.749-1.035c.722-.214,1.463-.437,2.531-.665.332-.071.788-.2,1.325-.351C91,26.529,93.993,25.7,96.4,26.016l1.316.18a30.665,30.665,0,0,0,5.542.427,3.9,3.9,0,0,0,3.733-2.208c.266-.822-.095-1.629-1.073-2.4l-.475-.375A57.51,57.51,0,0,0,94.52,14.594l2.142-4.45a87.109,87.109,0,0,1,14.575,8.463c4.982,3.833,4.35,7.9,3.847,9.465a8.85,8.85,0,0,1-8.306,5.78,52.7,52.7,0,0,1-6.217-.556l-.19,3.239-.123,8.482-.442.627a19.758,19.758,0,0,1-3.866,4.013c-.271.214-.546.427-.836.632l-.223.157L93.3,48.537l1.4,2.033c-.161.109-.318.218-.484.328l-.313.195c-.261.166-.437.275-.622.38-.143.085-.313.18-.484.28l-1.458.769c-.209.1-.418.2-.632.3L90.322,53c-.242.109-.48.214-.717.318l-.223.095c-.366.152-.636.266-.917.375-8.064,3.172-19.4,4.877-31.881,4.882M89.044,32.195a3.533,3.533,0,0,1,.442,1.852c-.028,1.909-.171,4.113-.3,6.24a77.382,77.382,0,0,0-.266,7.917l1.857-.983c.152-.09.28-.171.408-.252l.936-.613c.323-.233.537-.394.746-.556a15.782,15.782,0,0,0,2.47-2.427l.1-7.024.323-5.443h0c-1.411-.19-4.046.551-5.618.988-.4.114-.769.214-1.092.3m8.767.418-.019.09Z" transform="translate(66.402 38.031)" fill="#0c1015"/><path d="M37.432,47.13c-.123,0-.252,0-.375,0-5.324-.1-10.638-3.03-15.786-8.7l3.562-3.419A17.223,17.223,0,0,0,36.51,40.239c.1,0,.195,0,.294,0,9.883,0,18.094-9.579,18.346-17.653a9.368,9.368,0,0,0-2.313-6.725l3.538-3.434c3.035,2.835,6.226,7.537,6.079,12.22C62.1,35.9,49.542,47.13,37.432,47.13" transform="translate(79.746 46.61)" fill="#0c1015"/><path d="M57.806,20.96c-18.6,0-26.52-.033-36-1.99a21.945,21.945,0,0,0-4.863.427l-1.406-4.73a23.237,23.237,0,0,1,7.157-.556c9.038,1.881,16.793,1.909,35.116,1.909h1.914c15.316,0,23.395-.67,33.62-1.524,2.427-.2,4.949-.413,7.689-.622l.313-.024,6.668,1.192-.874,4.858L101.1,18.818c-2.612.2-5.025.4-7.342.6-9.931.826-18.508,1.543-34.033,1.543H57.806Z" transform="translate(58.255 51.926)" fill="#0c1015"/><path d="M42.457,50.594c-.133,0-.261,0-.394,0a22.2,22.2,0,0,1-15.62-7.224c-4.35-4.578-6.844-10.619-6.673-16.152.318-10.121,9.5-16.48,23.48-16.219,8.074.157,14.666,2.5,18.56,6.6a14.32,14.32,0,0,1,3.928,10.567C65.406,38.631,55.2,50.594,42.457,50.594m-.014-34.669c-8.534,0-17.472,2.987-17.738,11.441-.133,4.246,1.852,8.957,5.314,12.6a17.328,17.328,0,0,0,12.144,5.69h.29c9.888,0,18.094-9.579,18.351-17.648a9.391,9.391,0,0,0-2.569-7.015c-2.935-3.087-8.435-4.93-15.083-5.058-.233-.009-.47-.009-.708-.009" transform="translate(74.093 41.193)" fill="#0c1015"/><path d="M42.457,50.594c-.133,0-.261,0-.394,0a22.2,22.2,0,0,1-15.62-7.224c-4.35-4.578-6.844-10.619-6.673-16.152.318-10.121,9.5-16.48,23.48-16.219,8.074.157,14.666,2.5,18.56,6.6a14.32,14.32,0,0,1,3.928,10.567C65.406,38.631,55.2,50.594,42.457,50.594m-.014-34.669c-8.534,0-17.472,2.987-17.738,11.441-.133,4.246,1.852,8.957,5.314,12.6a17.328,17.328,0,0,0,12.144,5.69h.29c9.888,0,18.094-9.579,18.351-17.648a9.391,9.391,0,0,0-2.569-7.015c-2.935-3.087-8.435-4.93-15.083-5.058-.233-.009-.47-.009-.708-.009" transform="translate(74.093 41.193)" fill="#0c1015"/><path d="M34.063,36.793H34A12.073,12.073,0,0,1,22.185,26.43l-.28,0,.128-1.8-.109-1.814h.28A12.068,12.068,0,0,1,34.058,12.567h.062A12.068,12.068,0,0,1,45.936,22.925l.28,0-.128,1.8.109,1.819h-.28A12.069,12.069,0,0,1,34.063,36.793M27.69,27.774a7.075,7.075,0,0,0,6.335,4.084h.038a7.082,7.082,0,0,0,6.34-4.023h-.522a6.539,6.539,0,0,1-5.851,3.491,6.66,6.66,0,0,1-5.808-3.552Zm6.373-3.5a.4.4,0,0,0,0,.8c.266,0,.356-.275.356-.4a.377.377,0,0,0-.356-.4m5.846-2.7h.522A7.076,7.076,0,0,0,34.1,17.5h-.038a7.073,7.073,0,0,0-6.335,4.018l.532,0a6.641,6.641,0,0,1,5.808-3.5H34.1a6.557,6.557,0,0,1,5.813,3.552" transform="translate(82.126 47.116)" fill="#0c1015"/><path d="M28.13,40.749l-1.425-.318-.622-.784a2.581,2.581,0,0,1-.389-.774c-.052-.109-.1-.218-.147-.332a3.971,3.971,0,0,1-.3-1.311,3.487,3.487,0,0,1,.313-1.719A4.918,4.918,0,0,1,27.2,33.635c.166-.123.328-.233.465-.323l1.558-.926.2.1a5.172,5.172,0,0,1,.185-.736,3.53,3.53,0,0,1,1.5-2.137,5.976,5.976,0,0,1-.261-1.1,7.38,7.38,0,0,1-.062-.855l0-1.938c-.095-.114-.19-.233-.28-.356-.214-.309-.366-.556-.465-.736a4.141,4.141,0,0,1-.218-.446l-.8-2.014a6.693,6.693,0,0,1-.717-.6c-.29-.294-.494-.541-.636-.717a4.91,4.91,0,0,1-.28-.408L26.012,18.11l1.178-.579-.465-1.178,1.164.831.546-.266a7.613,7.613,0,0,1,1.33-.465l.119-.028a4.153,4.153,0,0,1,.223-1.126A5.246,5.246,0,0,1,32.1,12.8a4.629,4.629,0,0,1,1.8-.883c.988-.176,2.313.09,3.12,2.313a5.11,5.11,0,0,1,.328,1.325,4.745,4.745,0,0,1,.033.689h1.045l.765,1.05a4.694,4.694,0,0,1,.28.451,6.868,6.868,0,0,1,.437.959,5.167,5.167,0,0,1,.233,2.916,2.49,2.49,0,0,1,.831.351l.722.47.28.841s.062.185.138.489a8.444,8.444,0,0,1,.142,1.24,5.428,5.428,0,0,1-.043.874,6.88,6.88,0,0,1-.157.807,4.429,4.429,0,0,1-.38,1,4.167,4.167,0,0,1-.209.375l1.045.142-.394,2.484a6.726,6.726,0,0,1-.518,1.653A6.083,6.083,0,0,1,39.21,35.06a5.42,5.42,0,0,1-2.071.689l1.752,1.914s-.123.166-.356.418a7.638,7.638,0,0,1-.9.841,7.144,7.144,0,0,1-3.5,1.5,6.061,6.061,0,0,1-2.873-.356l-.7.123a12.812,12.812,0,0,1-1.947.48Zm.119-4.982a1.765,1.765,0,0,0-.18.446,1.56,1.56,0,0,0,.114,1.1l.19-.356.209-.864-.119-.309a1.562,1.562,0,0,0-.214-.014m.133-.2s-.043.052-.095.138a1.357,1.357,0,0,0,.133-.033Zm3.609-2.175a.65.65,0,0,0-.024.19v0L32,33.4Z" transform="translate(94.599 44.494)" fill="#0c1015"/><path d="M33.413,40.1l-.575-.147a10.568,10.568,0,0,1-1.9-.622l-.337-.085a5.85,5.85,0,0,1-2.816.171,6.851,6.851,0,0,1-3.239-1.634,7.947,7.947,0,0,1-.845-.9c-.142-.176-.242-.323-.271-.361L25.354,35.2l-.123-.332a5.158,5.158,0,0,1-1.928-.788,5.866,5.866,0,0,1-2.123-2.75,6.521,6.521,0,0,1-.4-1.619l-.119-1.287.993-.831.024-.019a5.332,5.332,0,0,1-.3-.594,4.517,4.517,0,0,1-.313-1.031,5.424,5.424,0,0,1-.09-.769,4.8,4.8,0,0,1,.019-.869l.014-.152L19.992,22.7l2.555-1.278a2.448,2.448,0,0,1,.589-.209,5.078,5.078,0,0,1,.427-2.66,6.41,6.41,0,0,1,.48-.893,4.716,4.716,0,0,1,.294-.408l.741-.893.978-.024c.014-.19.038-.375.071-.565a5.055,5.055,0,0,1,.423-1.292,5.021,5.021,0,0,1,.717-1.164l1.273-1.534,1.767.921a7.385,7.385,0,0,1,1.13.755,5.082,5.082,0,0,1,1.757,2.5,4.255,4.255,0,0,1,.152,1.026l.009,0a7.879,7.879,0,0,1,1.244.522l.195.109,2.023-1.363-.936,1.966,1.069.594-1.529,2.275a3.858,3.858,0,0,1-.313.389,6.714,6.714,0,0,1-.617.617,6.8,6.8,0,0,1-.693.522l-.86,1.814a4.049,4.049,0,0,1-.237.413c-.095.147-.256.375-.446.617-.1.119-.195.228-.294.337l-.1,1.691a6.5,6.5,0,0,1-.109.864q-.05.235-.114.456l.693,1.491a6.678,6.678,0,0,1,.375,1.064c.028.119.076.3.114.537l.133-.057,1.14.831v0l.171.123c.242.18.4.3.565.442A4.8,4.8,0,0,1,36.263,35.1l.01.028a3.716,3.716,0,0,1,0,2.541l.119.361-1.463,1.79Zm.423-4.051-.185.817a1.79,1.79,0,0,0,.171-.332l.076-.3a1.623,1.623,0,0,0,.019-.214Zm.071-.3-.071.3.081-.033a1.7,1.7,0,0,0-.009-.266m-.432-.736c.062.019.119.038.18.052a.67.67,0,0,0-.133-.152Zm-3.168-2.194.1.128a.605.605,0,0,0-.019-.166Z" transform="translate(74.954 44.18)" fill="#0c1015"/><path d="M16.561,18.46c5.571,7.376,15.7,12.353,38.977,13.621C73.68,33.073,90.312,28.7,98.685,23.7a21.531,21.531,0,0,1-.019,2.213c-.988,16.475-28.528,28.98-44.624,28.415S15.194,37.894,16.182,21.419a21.817,21.817,0,0,1,.38-2.959" transform="translate(60.551 69.21)" fill="#004b9e"/><path d="M51.673,48.913c15.506.014,37.072-11.455,40.226-26.42a42.354,42.354,0,0,0,6.079-2.93c.028.731.024,1.472-.019,2.213C96.971,38.251,69.43,50.756,53.34,50.191,39.928,49.72,20.718,38.5,16.339,24,21.6,37.2,40.36,48.9,51.673,48.913" transform="translate(61.258 73.345)" fill="#003288"/><path d="M22.532,21.571a6.053,6.053,0,0,1,.052.622c0,.081,0,.147,0,.19v.071a3.058,3.058,0,0,1-.784.19,1.494,1.494,0,0,1-1.363-.47,2.636,2.636,0,0,1-.418-1.7,13.628,13.628,0,0,0-.214,2.541,14.69,14.69,0,0,0,.318,2.916,3.4,3.4,0,0,1,.689-.256,2.193,2.193,0,0,1,1.529.071,2.99,2.99,0,0,1,1.145,1.164,6.518,6.518,0,0,1,.413.8,3.927,3.927,0,0,1-.746.47,2.035,2.035,0,0,1-1.6.157,2.27,2.27,0,0,1-1.107-1.13,19.16,19.16,0,0,0,1.985,4.493,3.973,3.973,0,0,1,.646-.451,2.632,2.632,0,0,1,1.629-.389,2.96,2.96,0,0,1,1.5.793,5.834,5.834,0,0,1,.456.456l.157.185a4.27,4.27,0,0,1-.679.622,2.457,2.457,0,0,1-1.634.541,2.426,2.426,0,0,1-1.42-.736l.123.19a17.717,17.717,0,0,0,2.085,2.56c.271.271.56.532.864.793a4.637,4.637,0,0,1,.56-.594,3.331,3.331,0,0,1,1.6-.826,3.384,3.384,0,0,1,1.762.261c.233.1.446.2.594.285s.218.133.218.133a4.266,4.266,0,0,1-.565.746,3.074,3.074,0,0,1-1.577.95,2.8,2.8,0,0,1-1.672-.242c.237.18.494.356.76.537,1.031.684,2.128,1.306,3.22,1.895a3.694,3.694,0,0,1,2.075-1.657,2.863,2.863,0,0,1,1.021-.057,4.678,4.678,0,0,1,.921.218,5.545,5.545,0,0,1,.66.285c.157.085.252.142.252.142a4.175,4.175,0,0,1-.565.746,3.238,3.238,0,0,1-1.6.978,3.455,3.455,0,0,1-1.733-.1c.47.256.955.518,1.425.779a.08.08,0,0,1,.014.123h0l.166.1a4.776,4.776,0,0,1,.565.4A2.982,2.982,0,0,1,35.3,42.914a2.9,2.9,0,0,1-.266,1.786,4.7,4.7,0,0,1-.465.8,4.16,4.16,0,0,1-.722-.56,3.444,3.444,0,0,1-.565-.646,2.517,2.517,0,0,1-.418-.855,2.962,2.962,0,0,1,.166-1.781,4.912,4.912,0,0,1,.37-.75c-.522-.285-1.064-.575-1.581-.86-.86-.461-1.733-.926-2.593-1.43a3.264,3.264,0,0,1,1.007,1.439,3.48,3.48,0,0,1-.551,2.612s-.09-.047-.247-.138a4.8,4.8,0,0,1-.584-.4A3.146,3.146,0,0,1,27.723,40.6a2.825,2.825,0,0,1,.176-1.809,3.893,3.893,0,0,1,.394-.736c-.19-.119-.385-.247-.575-.37a16.41,16.41,0,0,1-2.55-2.056c-.19-.18-.37-.375-.556-.579a7.507,7.507,0,0,1,.38.731,3.672,3.672,0,0,1,.294,1,3.243,3.243,0,0,1-.052,1.012,4.4,4.4,0,0,1-.294.836,4.073,4.073,0,0,1-.494.793,2.712,2.712,0,0,1-.247-.195,7.014,7.014,0,0,1-.546-.56,4.12,4.12,0,0,1-.294-.408c-.095-.152-.185-.313-.266-.47a2.84,2.84,0,0,1-.195-.532,2.557,2.557,0,0,1-.095-.565,2.437,2.437,0,0,1,.157-1.035,4.182,4.182,0,0,1,.413-.812,4.732,4.732,0,0,1,.527-.646c-.266-.347-.546-.727-.836-1.14a22.025,22.025,0,0,1-1.752-3.03,5.208,5.208,0,0,1,.214,1.961,3.857,3.857,0,0,1-.75,1.814,3.588,3.588,0,0,1-.636.674,5.156,5.156,0,0,1-.518-.988,4.386,4.386,0,0,1-.3-2.223,3.437,3.437,0,0,1,.907-1.781,3.933,3.933,0,0,1,.627-.537,16.364,16.364,0,0,1-.712-2.156,15.3,15.3,0,0,1-.475-3.016,8.2,8.2,0,0,1-.413,2.156,4.166,4.166,0,0,1-1.14,1.672,3.191,3.191,0,0,1-.736.518s-.033-.133-.081-.356a7.3,7.3,0,0,1-.119-.921,5.489,5.489,0,0,1,.408-2.569,3.192,3.192,0,0,1,1.358-1.51,2.758,2.758,0,0,1,.7-.285,13.828,13.828,0,0,1,.546-3.438l.033-.047a.1.1,0,0,1,.081-.038c.047,0,.066.047.052.1a2.209,2.209,0,0,1,.622.119,2.09,2.09,0,0,1,.594.309,1.8,1.8,0,0,1,.518.551,3.805,3.805,0,0,1,.442,1.539" transform="translate(64.34 71.061)" fill="#366cb4"/><path d="M48.212,20.6a2.518,2.518,0,0,1,.746-.47,2.858,2.858,0,0,1,.741-.195,2.685,2.685,0,0,1,.717,0c0-.057.043-.1.09-.09a.094.094,0,0,1,.076.057l.019.057a14.1,14.1,0,0,1-.522,3.695,2.939,2.939,0,0,1,.67.442,2.968,2.968,0,0,1,.993,1.862,5.756,5.756,0,0,1-.394,2.764,8.228,8.228,0,0,1-.432.931c-.123.223-.2.351-.2.351a3.2,3.2,0,0,1-.632-.689,3.954,3.954,0,0,1-.693-1.98A8.212,8.212,0,0,1,49.642,25a17.386,17.386,0,0,1-1.5,3.044,20.652,20.652,0,0,1-1.472,2.1,3.451,3.451,0,0,1,.5.689,3.235,3.235,0,0,1,.4,2.042,4.971,4.971,0,0,1-1.054,2.256,6.376,6.376,0,0,1-.883.926,3.674,3.674,0,0,1-.47-.841,3.712,3.712,0,0,1-.228-2.047,5.97,5.97,0,0,1,.869-2,27.064,27.064,0,0,1-2.892,2.793c-.446.375-.869.708-1.278,1.012a3.967,3.967,0,0,1,.366.788,3.515,3.515,0,0,1,.185.926,2.642,2.642,0,0,1-.166,1.116,3.318,3.318,0,0,1-.285.565,3.213,3.213,0,0,1-.385.513c-.142.157-.294.3-.442.442a4.8,4.8,0,0,1-.456.356,7.858,7.858,0,0,1-.779.48c-.2.095-.328.147-.328.147a3.847,3.847,0,0,1-.323-1.862,3.2,3.2,0,0,1,.271-1.064,4.5,4.5,0,0,1,.636-.978c.218-.247.442-.484.655-.689-.266.176-.532.342-.793.5a22.268,22.268,0,0,1-3.448,1.61c-.242.09-.494.176-.741.261a3.849,3.849,0,0,1,.19.85,2.931,2.931,0,0,1-.4,1.923,4.064,4.064,0,0,1-1.724,1.363,5.6,5.6,0,0,1-.765.294c-.195.062-.313.09-.313.09a3.489,3.489,0,0,1,.256-2.835,4.062,4.062,0,0,1,1.558-1.287c-1.1.342-2.2.651-3.282.95-.66.185-1.339.375-2.009.57a3.758,3.758,0,0,1,.161.855,3.12,3.12,0,0,1-.394,1.89,3.267,3.267,0,0,1-.727.8,4.7,4.7,0,0,1-.831.556,5.2,5.2,0,0,1-.959.432,3.941,3.941,0,0,1-.252-.931,2.992,2.992,0,0,1,.29-1.919,3.744,3.744,0,0,1,1.624-1.387,5.628,5.628,0,0,1,.746-.3c.085-.028.157-.052.209-.066v0a.1.1,0,0,1,.052-.128c.6-.176,1.216-.347,1.809-.513a4,4,0,0,1-1.919-.261,3.119,3.119,0,0,1-1.42-1.349,3.97,3.97,0,0,1-.37-.893s.123-.043.323-.095a5.943,5.943,0,0,1,.812-.161,5.251,5.251,0,0,1,1.069-.038,3.383,3.383,0,0,1,1.1.271,3.492,3.492,0,0,1,1.714,2.161c1.377-.389,2.774-.8,4.122-1.306.347-.128.674-.261,1-.394a3.328,3.328,0,0,1-1.895-.1,2.9,2.9,0,0,1-1.411-1.316,4.147,4.147,0,0,1-.375-.893s.109-.038.294-.095.442-.114.731-.171a4.009,4.009,0,0,1,2,.095,3.167,3.167,0,0,1,1.468,1.192,3.829,3.829,0,0,1,.413.731c.423-.2.822-.418,1.2-.641a23.465,23.465,0,0,0,3.1-2.237L43,33.624a3.129,3.129,0,0,1-1.786.465,2.481,2.481,0,0,1-1.6-.9,4.09,4.09,0,0,1-.541-.784s.09-.066.242-.166a7.238,7.238,0,0,1,.636-.38,3.784,3.784,0,0,1,1.89-.513,2.742,2.742,0,0,1,1.648.741,3.8,3.8,0,0,1,.551.608,23.484,23.484,0,0,0,3.628-4.27,2.96,2.96,0,0,1-1.577.945,2.206,2.206,0,0,1-1.686-.494,3.821,3.821,0,0,1-.66-.646,7.892,7.892,0,0,1,.708-.75,3.8,3.8,0,0,1,1.624-.974,2.522,2.522,0,0,1,1.691.242,3.287,3.287,0,0,1,.66.418,16.225,16.225,0,0,0,1.3-2.978,14.514,14.514,0,0,0,.6-2.693,3.146,3.146,0,0,1-1.012,1.681,1.832,1.832,0,0,1-1.638.2,3.347,3.347,0,0,1-.788-.356l.024-.076.066-.195c.066-.166.142-.389.261-.641a4.557,4.557,0,0,1,.978-1.506" transform="translate(97.759 74.405)" fill="#366cb4"/><path d="M16.73,18.049c5.884,7.39,14.561,11.992,39.062,13.326,19.1,1.04,37.457-1.919,45.393-8.264a17.5,17.5,0,0,0,3.391-3.51c-.746,5.419-2.066,8.933-4.958,10.662-8.373,5-25,9.37-43.151,8.382C33.2,37.379,23.06,32.4,17.494,25.026c-1.278-1.691-1.7-4.949-1.572-8.316a10.106,10.106,0,0,0,.807,1.339" transform="translate(59.619 62.649)" fill="#ffc400"/><path d="M32.874,24.775a27.275,27.275,0,0,0,7.314-3.947,17.5,17.5,0,0,0,3.391-3.51c-.741,5.419-2.066,8.933-4.958,10.662a43.234,43.234,0,0,1-6.449,3.077,22.273,22.273,0,0,0,.7-6.283" transform="translate(120.616 64.932)" fill="#ffaf00"/><path d="M17.687,37.721a58.492,58.492,0,0,0,10.187-1.453l-.446,11.783a6.634,6.634,0,0,0,.807,1.339C34.119,56.78,42.8,61.382,67.3,62.716c19.1,1.04,37.457-1.919,45.393-8.264a17.463,17.463,0,0,0,3.391-3.51L116.556,37a51.85,51.85,0,0,0,8.42,1.107c5.409-.2,9.323-5.989,3.044-10.823-6.882-5.3-31.16-18.726-57.85-18.935C47.522,8.181,21.344,23.507,14.41,29.828a4.493,4.493,0,0,0,3.277,7.893" transform="translate(48.113 31.308)" fill="#489bd7"/><path d="M17.687,37.721a58.492,58.492,0,0,0,10.187-1.453l-.446,11.783a6.634,6.634,0,0,0,.807,1.339C34.119,56.78,42.8,61.382,67.3,62.716c19.1,1.04,37.457-1.919,45.393-8.264a17.463,17.463,0,0,0,3.391-3.51L116.556,37a51.85,51.85,0,0,0,8.42,1.107c5.409-.2,9.323-5.989,3.044-10.823-6.882-5.3-31.16-18.726-57.85-18.935C47.522,8.181,21.344,23.507,14.41,29.828a4.493,4.493,0,0,0,3.277,7.893" transform="translate(48.113 31.308)" fill="#004b9e"/><path d="M14.76,15.13c3.457-.043,10.909-.774,11.655-.945l.062.413a81.126,81.126,0,0,1-10.225,1.249,5,5,0,0,1-3.035-.912,5.52,5.52,0,0,0,1.543.195" transform="translate(49.553 53.182)" fill="#003288"/><path d="M51.723,18.491c-13.64,0-27.18-.76-29.9-2.926-1.149-.921-2.93-1.183-5.785-.855L16,14.293c2.968-.342,4.849-.047,6.093.945,2.527,2.018,16.727,3.106,36.165,2.778,15.639-.261,33.776-1.529,38.179-3.443,1.857-.812,5.286-.133,8.311.461l-.081.408c-2.964-.584-6.326-1.244-8.064-.489-4.659,2.028-23.138,3.225-38.34,3.481-2.151.038-4.346.057-6.535.057" transform="translate(59.969 53.074)" fill="#003288"/><path d="M46.06,52.474c15.425.841,30.343-.494,39.694-4.374-.655-2.973.29-10.591.375-15.853.043-2.341-6.616-2.346-6.445-2.375,4.3-.641,4.782-1.159,7.433-1.729,1.558-.337,5.571-1.771,8.069-1.444a40.057,40.057,0,0,0,7.271.632c5.409-.2,8.511-5.552,4.1-9.014a61.193,61.193,0,0,0-11.84-7.7A83.364,83.364,0,0,1,108.839,18.8c6.283,4.835,2.365,10.624-3.044,10.823a52.24,52.24,0,0,1-8.416-1.107l-.366,6.107L96.9,42.457a17.463,17.463,0,0,1-3.391,3.51c-.237.19-.484.375-.736.56l-.285.195c-.166.114-.332.228-.5.342l-.375.233c-.152.095-.3.19-.461.28s-.294.171-.446.256-.285.161-.432.242c-.166.09-.337.176-.508.266-.138.066-.271.138-.408.2-.19.095-.385.19-.579.28L88.4,49c-.218.095-.437.195-.66.29l-.3.128c-.252.1-.508.214-.769.313l-.033.014h0c-9.4,3.7-23.732,5.3-38.516,4.488-14.974-.817-24.04-2.85-30.167-6,6.088,2.74,14.3,3.491,28.111,4.241" transform="translate(67.295 39.794)" fill="#003288"/><path d="M35.019,41.284c11.332.218,20.854-10.467,21.158-20.042a11.791,11.791,0,0,0-2.93-8.43c2.5,2.332,5.419,6.44,5.3,10.339-.3,9.57-11.555,20.3-22.886,20.084-5.633-.109-10.42-3.942-14.005-7.888a19.674,19.674,0,0,0,13.364,5.937" transform="translate(81.189 48.034)" fill="#003288"/><path d="M57.435,18c-18.56,0-26.415-.033-35.785-1.98a22.215,22.215,0,0,0-5.542.489l-.47-1.581a22.493,22.493,0,0,1,6.35-.518c9.361,1.947,17.254,1.957,36.393,1.947h.974c15.387,0,23.9-.712,33.757-1.534,2.422-.2,4.939-.413,7.679-.622a1.012,1.012,0,0,1,.209.01l6.359,1.14-.294,1.619-6.25-1.121c-2.7.209-5.181.413-7.565.613C83.356,17.289,74.812,18,59.353,18H57.435Z" transform="translate(58.626 53.241)" fill="#0c1015"/><path d="M41.813,49.122c-.128,0-.256,0-.38,0a21.4,21.4,0,0,1-15.041-6.967c-4.2-4.426-6.616-10.239-6.449-15.563.3-9.622,9.133-15.72,22.639-15.416,7.855.152,14.243,2.4,17.985,6.335a13.367,13.367,0,0,1,3.7,9.978C63.95,37.582,54.1,49.122,41.813,49.122m-.019-34.669c-8.919,0-18.275,3.2-18.56,12.239-.138,4.46,1.933,9.389,5.542,13.189A18.114,18.114,0,0,0,41.5,45.827c.1,0,.209,0,.309,0,10.33,0,18.907-10.011,19.173-18.451a10.148,10.148,0,0,0-2.8-7.6c-3.13-3.3-8.691-5.181-15.658-5.319-.242,0-.484,0-.727,0" transform="translate(74.742 41.843)" fill="#1a1311"/><path d="M20.29,25.34c-.3,9.57,8.544,20.612,19.875,20.83S61.019,35.7,61.323,26.133s-8.743-14.4-20.07-14.618S20.589,15.77,20.29,25.34" transform="translate(76.043 43.143)" fill="#004b9e"/><path d="M36.059,22.091a4.126,4.126,0,0,0-8.164-.038l-5.424-.028a9.523,9.523,0,0,1,19.016.095Zm-13.6,1.249a9.523,9.523,0,0,0,19.016.095l-5.424-.028a4.129,4.129,0,0,1-8.169-.038Zm9.527-3.476A2.866,2.866,0,1,0,34.8,22.741a2.845,2.845,0,0,0-2.812-2.878" transform="translate(84.215 49.062)" fill="#366cb4"/><path d="M26.728,33.656c.161-.123.323-.223.432-.3l.138-.081.052-.033a3.384,3.384,0,0,1,.646.451,1.227,1.227,0,0,1,.513,1.159,1.789,1.789,0,0,1-1.04,1,9.361,9.361,0,0,0,2.08-.917,9.15,9.15,0,0,0,2.009-1.615,4.294,4.294,0,0,1-.646-.351,2.369,2.369,0,0,1-.964-1.092,2.1,2.1,0,0,1,.062-1.339,4.758,4.758,0,0,1,.285-.689,4.833,4.833,0,0,1,.86.237,2.084,2.084,0,0,1,1.216.978,1.718,1.718,0,0,1-.076,1.377,11.264,11.264,0,0,0,1.847-3.9,5.031,5.031,0,0,1-.779-.147,3.1,3.1,0,0,1-1.453-.807,2.546,2.546,0,0,1-.575-1.373,4.2,4.2,0,0,1-.038-.537c0-.133,0-.209,0-.209a5.259,5.259,0,0,1,.921.014,2.686,2.686,0,0,1,1.586.646,2.032,2.032,0,0,1,.56,1.358c.014-.066.029-.128.038-.195a11.2,11.2,0,0,0,.119-2.954,9.436,9.436,0,0,0-.166-1.04,4.853,4.853,0,0,1-.817.081,3.952,3.952,0,0,1-1.767-.342,3.412,3.412,0,0,1-1.23-1.088c-.128-.185-.233-.356-.3-.475s-.1-.2-.1-.2a5.2,5.2,0,0,1,.9-.209,3.486,3.486,0,0,1,1.843.161,2.582,2.582,0,0,1,1.192,1.064c-.081-.256-.176-.518-.28-.784a19.37,19.37,0,0,0-1.534-2.978,4.444,4.444,0,0,1-2.66.228,3.422,3.422,0,0,1-.883-.4,4.456,4.456,0,0,1-.646-.518,4.5,4.5,0,0,1-.4-.456,1.428,1.428,0,0,1-.138-.19,5.233,5.233,0,0,1,.874-.3,3.875,3.875,0,0,1,1.881-.057,3.168,3.168,0,0,1,1.415.822c-.261-.4-.532-.8-.8-1.192-.019-.028,0-.071.057-.095h0l-.09-.138a3.84,3.84,0,0,1-.275-.532,2.2,2.2,0,0,1-.119-1.553,2.913,2.913,0,0,1,1.092-1.3,4.567,4.567,0,0,1,.793-.461,2.989,2.989,0,0,1,.37.727,2.681,2.681,0,0,1,.19.746,1.885,1.885,0,0,1-.062.841A2.627,2.627,0,0,1,31.815,16a4.982,4.982,0,0,1-.708.4c.294.432.6.883.883,1.325A25.418,25.418,0,0,1,33.33,20a2.648,2.648,0,0,1-.01-1.539,3.587,3.587,0,0,1,1.89-1.71,1.969,1.969,0,0,1,.142.228,3.856,3.856,0,0,1,.275.6,2.574,2.574,0,0,1,.081,1.757,2.468,2.468,0,0,1-1.2,1.235,4,4,0,0,1-.755.313q.128.285.242.57a11.009,11.009,0,0,1,.731,2.864c.024.237.043.48.047.727.043-.223.109-.47.18-.722a3.344,3.344,0,0,1,.413-.85,2.756,2.756,0,0,1,.674-.674,3.914,3.914,0,0,1,.746-.432,4.232,4.232,0,0,1,.879-.285s.038.109.081.29a5.422,5.422,0,0,1,.076.75,2.757,2.757,0,0,1-.019.48,4.563,4.563,0,0,1-.095.508,2.721,2.721,0,0,1-.19.5,2.874,2.874,0,0,1-.294.456,2.253,2.253,0,0,1-.8.608,3.8,3.8,0,0,1-.841.28,4.828,4.828,0,0,1-.831.09c-.024.394-.071.812-.142,1.259a12.965,12.965,0,0,1-.864,2.992,4.936,4.936,0,0,1,1.244-1.311,3.957,3.957,0,0,1,1.8-.632,4.342,4.342,0,0,1,.931,0,4.322,4.322,0,0,1-.328,1.012,3.557,3.557,0,0,1-1.377,1.605,3.3,3.3,0,0,1-1.9.394,4.441,4.441,0,0,1-.817-.133,11.064,11.064,0,0,1-1.107,1.657A9.571,9.571,0,0,1,30.224,34.7a8.958,8.958,0,0,1,1.895-.736,4.672,4.672,0,0,1,2-.028,3.572,3.572,0,0,1,.86.275s-.076.095-.218.252a4.956,4.956,0,0,1-.627.579,4.665,4.665,0,0,1-2.237.974,3.687,3.687,0,0,1-2-.332,3.8,3.8,0,0,1-.651-.389,9.923,9.923,0,0,1-2.983.983.116.116,0,0,1-.057,0,.187.187,0,0,1-.081-.043c-.024-.033,0-.066.047-.076a2.172,2.172,0,0,1-.285-.489,1.618,1.618,0,0,1-.128-.532,1.127,1.127,0,0,1,.1-.565,2.685,2.685,0,0,1,.874-.917" transform="translate(96.547 46.448)" fill="#366cb4"/><path d="M31.4,33.549a1.047,1.047,0,0,1,.052.537,1.377,1.377,0,0,1-.152.484,1.915,1.915,0,0,1-.285.442c.047.014.057.043.038.076a.14.14,0,0,1-.081.033.1.1,0,0,1-.052,0,9.277,9.277,0,0,1-2.726-1.1,3.842,3.842,0,0,1-.636.323,3.416,3.416,0,0,1-1.885.19,4.376,4.376,0,0,1-2.037-1.04,5.225,5.225,0,0,1-.551-.579c-.119-.152-.185-.252-.185-.252a3.373,3.373,0,0,1,.817-.2,4.406,4.406,0,0,1,1.862.142,8.407,8.407,0,0,1,1.733.807A8.873,8.873,0,0,1,25.577,31.6a9.891,9.891,0,0,1-.94-1.615,4.081,4.081,0,0,1-.769.076,3.078,3.078,0,0,1-1.752-.484A3.344,3.344,0,0,1,20.923,28a3.959,3.959,0,0,1-.247-.969,4.09,4.09,0,0,1,.864.062,3.692,3.692,0,0,1,1.648.7,4.564,4.564,0,0,1,1.083,1.3,12.141,12.141,0,0,1-.627-2.845,11.781,11.781,0,0,1-.062-1.187,4.032,4.032,0,0,1-.774-.133,3.5,3.5,0,0,1-.774-.309,2.159,2.159,0,0,1-.708-.617,3.116,3.116,0,0,1-.252-.442,3.251,3.251,0,0,1-.147-.48,3.364,3.364,0,0,1-.052-.48,2.029,2.029,0,0,1,0-.451,6,6,0,0,1,.114-.693,1.832,1.832,0,0,1,.095-.271,3.919,3.919,0,0,1,.8.318,3.524,3.524,0,0,1,.674.446,2.539,2.539,0,0,1,.594.674,3.537,3.537,0,0,1,.337.817,6.753,6.753,0,0,1,.123.684c.019-.228.052-.456.085-.674a10.325,10.325,0,0,1,.855-2.631c.081-.176.166-.347.256-.518a4.065,4.065,0,0,1-.689-.337,2.294,2.294,0,0,1-1.04-1.225,2.416,2.416,0,0,1,.171-1.638,4.038,4.038,0,0,1,.294-.541c.085-.133.147-.2.147-.209a3.436,3.436,0,0,1,1.667,1.714,2.429,2.429,0,0,1-.1,1.434c.432-.717.907-1.4,1.387-2.047.294-.394.594-.8.9-1.187a3.81,3.81,0,0,1-.641-.413A2.427,2.427,0,0,1,26,14.571a1.794,1.794,0,0,1-.014-.793,2.818,2.818,0,0,1,.218-.684,2.921,2.921,0,0,1,.394-.655,4.6,4.6,0,0,1,.708.48,2.749,2.749,0,0,1,.95,1.273,2.036,2.036,0,0,1-.209,1.449,3.218,3.218,0,0,1-.28.475l-.1.123.009,0c.043.024.066.066.043.09-.266.351-.546.708-.807,1.064a2.95,2.95,0,0,1,1.368-.679,3.6,3.6,0,0,1,1.748.166,4.927,4.927,0,0,1,.807.332,1.769,1.769,0,0,1-.147.171,3.421,3.421,0,0,1-.4.4,3.856,3.856,0,0,1-.632.442,2.959,2.959,0,0,1-.85.323,4.224,4.224,0,0,1-2.465-.37,18.215,18.215,0,0,0-1.61,2.688c-.114.242-.214.48-.313.717a2.452,2.452,0,0,1,1.183-.926,3.325,3.325,0,0,1,1.733-.043,4.939,4.939,0,0,1,.826.252,1.638,1.638,0,0,1-.1.18c-.076.114-.18.266-.309.432a3.211,3.211,0,0,1-1.216.94,3.74,3.74,0,0,1-1.672.214,5.1,5.1,0,0,1-.755-.123,9.32,9.32,0,0,0-.218.964,10.671,10.671,0,0,0-.062,2.764l.019.185a1.988,1.988,0,0,1,.608-1.24,2.514,2.514,0,0,1,1.52-.5,5.11,5.11,0,0,1,.869.038l-.014.195c-.014.128-.033.3-.066.5a2.341,2.341,0,0,1-.622,1.249,2.826,2.826,0,0,1-1.4.665,4.141,4.141,0,0,1-.736.095,10.511,10.511,0,0,0,1.5,3.752,1.609,1.609,0,0,1,0-1.292,2,2,0,0,1,1.2-.841,4.347,4.347,0,0,1,.812-.171,4.778,4.778,0,0,1,.228.66,2.024,2.024,0,0,1-.019,1.254,2.26,2.26,0,0,1-.969.964,4.205,4.205,0,0,1-.627.29,8.841,8.841,0,0,0,1.781,1.624,8.973,8.973,0,0,0,1.895.983,1.694,1.694,0,0,1-.912-1,1.133,1.133,0,0,1,.546-1.054,3.49,3.49,0,0,1,.632-.38l.043.033.123.085c.1.076.247.18.389.3a2.65,2.65,0,0,1,.765.907" transform="translate(77.519 46.636)" fill="#366cb4"/><path d="M64.571,34.167c-2.474,0-5-.066-7.561-.209C31.935,32.6,23.243,27.727,17.35,20.323a10.784,10.784,0,0,1-.9-1.477l-.888-1.919,1.5-.689.874,1.89a9.454,9.454,0,0,0,.7,1.168c5.614,7.053,14,11.688,38.464,13.018,19.728,1.073,37.348-2.094,44.833-8.083a16.836,16.836,0,0,0,3.248-3.362l.988-1.61,1.4.864L106.54,21.8a18.267,18.267,0,0,1-3.576,3.723c-6.8,5.433-21.4,8.648-38.393,8.648" transform="translate(58.353 60.883)" fill="#0c1015"/><path d="M62.4,35.37c-1.733,0-3.491-.047-5.262-.142C35.9,34.069,24.056,29.9,17.55,21.279l-1.838-2.451,1.316-.988,1.833,2.446c6.183,8.192,17.662,12.167,38.364,13.3,18.265.993,34.593-3.434,42.681-8.268l3.842-2.071.774,1.453-3.8,2.047C93.238,31.22,78.853,35.37,62.4,35.37" transform="translate(58.908 66.889)" fill="#0c1015"/><path d="M47.567,98.155a2.477,2.477,0,0,1-1.9-.893A163.339,163.339,0,0,1,16.749,44.689a2.469,2.469,0,0,1,3.058-3.149c19.586,5.96,35.239,6.782,59.807,3.153a2.468,2.468,0,0,1,2.3,3.97c-8.5,10.762-26.14,34.645-32.09,48.029A2.493,2.493,0,0,1,47.9,98.136a2.6,2.6,0,0,1-.332.019M23,47.6A158.036,158.036,0,0,0,47.039,91.1C53.313,78.94,65.889,61.435,74.319,50.4,54.339,52.867,39.526,52.06,23,47.6" transform="translate(62.316 155.347)" fill="#1a1311"/><path d="M33.8,93.123a2.475,2.475,0,0,1-1.838-.822,71.584,71.584,0,0,1-8.321-11.265A2.448,2.448,0,0,1,23.3,79.8c-.014-3.643,1.168-9.289,2.313-14.751l.332-1.591c-2.389-2.394-5.015-6.549-5.69-9.973a2.448,2.448,0,0,1,.394-1.89c2.147-3.082,7.9-8.259,8.145-8.477a2.432,2.432,0,0,1,1.7-.632c.864.014,2.408.119,3.837.214,1.045.071,2.028.138,2.6.157a2.481,2.481,0,0,1,2.056,1.235,51.836,51.836,0,0,0,6,7.713,2.478,2.478,0,0,1,.085,3.685A37.44,37.44,0,0,0,40.1,62.4c1.752,5.181,3.961,10.173,5.053,11.37a2.469,2.469,0,0,1,.2,3.077c-2.959,4.236-7.879,11.678-9.308,14.827a2.47,2.47,0,0,1-1.871,1.42,2.5,2.5,0,0,1-.375.028M28.25,79.132A65.983,65.983,0,0,0,33.327,86.3c2.2-3.776,5.39-8.511,6.991-10.847-2.417-3.98-4.882-11.417-5.2-12.376a2.462,2.462,0,0,1-.043-1.387c.446-1.71,2.954-5.471,4.949-7.945a70.172,70.172,0,0,1-4.588-6.022L34,47.626c-.907-.057-1.866-.123-2.641-.166a75.04,75.04,0,0,0-5.984,6.084,17.925,17.925,0,0,0,4.773,7.062,2.476,2.476,0,0,1,.921,2.46l-.627,3c-1.016,4.868-2.071,9.888-2.194,13.07" transform="translate(75.767 159.292)" fill="#1a1311"/><path d="M36.363,78.74a2.4,2.4,0,0,1-.66-.09,2.465,2.465,0,0,1-1.8-2.18c-.712-8.781-3.481-11.925-5.072-13.018a3.9,3.9,0,0,0-3.073-.774,2.468,2.468,0,0,1-3.111-2.873l.047-.228a11.765,11.765,0,0,1-1.078-1.168,2.575,2.575,0,0,1-.19-2.854c1.012-1.681,2.579-1.406,6.392-.746l.366.062a9.213,9.213,0,0,0,3.932-.394c1.938-2.626,2.166-5.827,2.36-8.663a2.47,2.47,0,0,1,3.719-1.952c4.626,2.726,4.687,4.683,4.706,5.329a3.057,3.057,0,0,1-1.292,2.6,34.077,34.077,0,0,0-3.191,6.787c.062.218.114.456.176.7.551,2.265,2,8.287,3.125,9.65a2.471,2.471,0,0,1,.237,2.783c-.271.48-2.683,4.735-3.586,5.993a2.474,2.474,0,0,1-2,1.031M31.947,59.615a12.019,12.019,0,0,1,2.147,2.071c-.1-.413-.2-.826-.3-1.244-.114-.461-.214-.874-.3-1.221a11.539,11.539,0,0,1-1.548.394m9.6-7.779-.038.024.038-.024" transform="translate(79.028 163.16)" fill="#1a1311"/><path d="M26.21,70.2l-4.83-1.026,3.206-15.112L20.6,47.412l4.236-2.541,4.488,7.49a2.487,2.487,0,0,1,.294,1.781Z" transform="translate(77.219 168.23)" fill="#1a1311"/><path d="M28.04,69.2,23.761,54.209a2.5,2.5,0,0,1,.157-1.767l3.738-7.613L32.086,47l-3.315,6.763,4.018,14.077Z" transform="translate(88.734 168.073)" fill="#1a1311"/><path d="M27.7,52.143a13.225,13.225,0,0,1-5.951-1.363l2.208-4.417a10.329,10.329,0,0,0,8.411-.142L34.24,50.79A17.34,17.34,0,0,1,27.7,52.143" transform="translate(81.56 173.292)" fill="#1a1311"/><path d="M21.615,64.629a2.457,2.457,0,0,1-2.208-1.363l-.76-1.524a2.466,2.466,0,0,1,.708-3.035A81.994,81.994,0,0,0,34.006,43.438a2.441,2.441,0,0,1,2.208-.964c.622.062,1.249.114,1.876.166a2.469,2.469,0,0,1,1.781,3.937A89.21,89.21,0,0,1,23.116,64.12a2.477,2.477,0,0,1-1.5.508" transform="translate(68.971 159.191)" fill="#1a1311"/><path d="M41.768,64.985a2.458,2.458,0,0,1-1.653-.636A167.83,167.83,0,0,1,23.479,46.577a2.465,2.465,0,0,1,2.014-4.023c.708.028,1.42.057,2.142.071a2.463,2.463,0,0,1,1.847.893,158.18,158.18,0,0,0,14.9,15.82,2.471,2.471,0,0,1,.356,3.258l-.955,1.344a2.478,2.478,0,0,1-1.743,1.031,2.739,2.739,0,0,1-.275.014" transform="translate(85.938 159.538)" fill="#1a1311"/><path d="M21.925,64.1l-2.978-3.937C25.268,55.38,30.34,49.121,35.408,42.586l3.9,3.025C34.03,52.422,28.73,58.957,21.925,64.1" transform="translate(71.036 159.663)" fill="#1a1311"/><path d="M38.863,63.356C34.09,59.423,28.391,53.093,22.806,45.527l3.97-2.93C32.129,49.844,37.533,55.862,42,59.547Z" transform="translate(85.504 159.704)" fill="#1a1311"/><path d="M60.5,108.645a2.541,2.541,0,0,1-.5-.052,2.473,2.473,0,0,1-1.752-1.406L34.855,55.012a2.47,2.47,0,0,1,1.363-3.31c5.3-2.056,7.471-3.04,7.874-3.267,2.313-1.316,2.432-2.327,2.593-3.723.171-1.467.489-4.2,4.184-5.139a2.507,2.507,0,0,1,1.482.081c8.188,3.092,16.019.993,23.594-1.035,1.643-.442,3.272-.874,4.877-1.259a2.472,2.472,0,0,1,2.959,1.786C94.04,78.82,70.051,100.78,62.168,107.994a2.453,2.453,0,0,1-1.667.651M40.421,55.354,61.346,102.02c8.639-8.287,25.418-27.446,18.232-59.256-.779.2-1.567.413-2.356.622-7.646,2.047-16.28,4.36-25.551,1.263-.033.19-.062.432-.081.632-.214,1.828-.57,4.9-5.058,7.447-.959.541-3.795,1.7-6.112,2.626" transform="translate(129.876 139.824)" fill="#1a1311"/><path d="M52.4,79.914a2.155,2.155,0,0,1-.494-.052,2.459,2.459,0,0,1-1.757-1.406L47.792,73.2c-.095-.242-5.818-14.571-10.743-24.691a2.47,2.47,0,0,1,4.379-2.284L53.277,67.438a105.816,105.816,0,0,0,11.474-7.993,2.467,2.467,0,0,1,3.681,3.206A75.757,75.757,0,0,1,58.406,75.089a1.657,1.657,0,0,1-.152.166l-.442.437c-.461.461-.912.907-1.363,1.339l-.584.56c-.622.594-1.225,1.154-1.79,1.676a2.491,2.491,0,0,1-1.672.646m.8-6.711.028.066.138-.133a1.73,1.73,0,0,1-.166.066" transform="translate(137.973 168.555)" fill="#1a1311"/><path d="M15.253,117.261a2.467,2.467,0,0,1-2.1-1.173C9,109.377,8.077,101.731,7.74,96.559c-1.8-27.441,5.59-38.535,27.294-56.031A2.47,2.47,0,0,1,39,42.959L25.018,109.748a2.474,2.474,0,0,1-.931,1.467l-7.347,5.547a2.478,2.478,0,0,1-1.486.5M32.716,48.882c-17.653,15.25-21.5,25.256-20.051,47.354v0c.261,4.013.907,9.665,3.386,14.856l4.322-3.263Z" transform="translate(28.05 149.901)" fill="#1a1311"/><path d="M13.456,85.824h-.009a2.461,2.461,0,0,1-2.408-1.98c-.19-.921-4.445-22.725,5.006-34.3a2.659,2.659,0,0,1,.541-.489L19.2,47.3a2.469,2.469,0,0,1,3.79,2.56l-7.119,34a2.47,2.47,0,0,1-2.417,1.961" transform="translate(37.194 175.79)" fill="#1a1311"/><path d="M73.54,56.247c-3.856,0-11.279-.285-17.667-2.2S41.986,47.3,38.1,44.6a2.461,2.461,0,0,1-.8-3.134,3.345,3.345,0,0,0,.285-.845,2.469,2.469,0,0,1,3.833-1.553c2.964,2.066,10.486,7.057,16.3,8.81,6.24,1.871,14.024,1.966,17.083,1.914a2.585,2.585,0,0,1,1.762.7,2.48,2.48,0,0,1,.746,1.743l.009.442c0,.375.01.75,0,1.121A2.468,2.468,0,0,1,74.9,56.237c-.4,0-.855.01-1.358.01" transform="translate(138.845 144.82)" fill="#1a1311"/><path d="M76.44,57.691h0c-3.942,0-13.877-.252-21.044-2.484-7.072-2.2-14.884-8.145-17.914-10.6a2.465,2.465,0,0,1,.138-3.942,5.455,5.455,0,0,0,.826-.693,2.48,2.48,0,0,1,3.3-.195c2.736,2.189,9.726,7.47,15.558,9.285,6.278,1.957,15.544,2.18,19.239,2.185A2.476,2.476,0,0,1,79,53.84c-.029.527-.066,1.045-.1,1.563a2.468,2.468,0,0,1-2.46,2.289" transform="translate(137.089 147.118)" fill="#1a1311"/><path d="M78.087,60.014h-.062c-5.329-.133-15.278-.67-22.1-2.8C48.794,55,40.2,47.632,36.835,44.564a2.465,2.465,0,0,1,.674-4.084c.6-.261,1.045-.465,1.311-.608a2.47,2.47,0,0,1,2.8.342c3,2.683,10.576,9.1,16.214,10.857,6.264,1.952,16.423,2.4,20.5,2.508a2.469,2.469,0,0,1,2.389,2.731c-.057.527-.123,1.05-.19,1.567a2.471,2.471,0,0,1-2.446,2.137" transform="translate(135.076 148.419)" fill="#1a1311"/><path d="M79.913,62.531h-.062c-5.191-.128-14.9-.665-21.538-2.8C47.263,56.181,38.462,47.267,36.035,44.617a2.475,2.475,0,0,1,.888-3.961l1.463-.6a2.472,2.472,0,0,1,2.731.579c2.2,2.3,10.068,10.045,19.154,12.965,5.813,1.871,15.007,2.36,19.975,2.489a2.467,2.467,0,0,1,2.37,2.883c-.1.622-.19,1.1-.28,1.567a2.463,2.463,0,0,1-2.422,1.99" transform="translate(132.656 149.488)" fill="#1a1311"/><path d="M10.67,62.369a2.5,2.5,0,0,1-1.026-.223A2.456,2.456,0,0,1,8.3,60.569c-.166-.584-.3-1.069-.418-1.553A2.466,2.466,0,0,1,9.241,56.2,61.971,61.971,0,0,1,19.884,52.6a2.466,2.466,0,0,1,3.068,2.223c.038.508.076,1,.119,1.463a2.466,2.466,0,0,1-1.843,2.622,54.513,54.513,0,0,0-9.508,3.225,2.45,2.45,0,0,1-1.05.233" transform="translate(29.271 196.942)" fill="#1a1311"/><path d="M12.552,59.467a2.5,2.5,0,0,1-1.425-.451,2.452,2.452,0,0,1-1.031-1.79c-.052-.5-.095-1.031-.133-1.581A2.475,2.475,0,0,1,11.82,53.08c.9-.223,1.771-.432,2.593-.617a2.465,2.465,0,0,1,2.959,2.911L17.03,57a2.482,2.482,0,0,1-1.857,1.9c-.651.152-1.32.313-2.009.489a2.46,2.46,0,0,1-.613.076" transform="translate(37.334 196.462)" fill="#1a1311"/><path d="M10.364,61.34a2.477,2.477,0,0,1-2.432-2.028c-.095-.537-.18-1.069-.261-1.605a2.469,2.469,0,0,1,1.453-2.622,54,54,0,0,1,11.355-3.3,2.469,2.469,0,0,1,2.93,2.394c0,.5.019.993.038,1.472a2.469,2.469,0,0,1-2,2.517A46.3,46.3,0,0,0,11.38,61.121a2.446,2.446,0,0,1-1.016.218" transform="translate(28.661 193.992)" fill="#1a1311"/><path d="M12.433,58.673A2.47,2.47,0,0,1,9.968,56.3c-.024-.518-.038-1.05-.043-1.591a2.461,2.461,0,0,1,2-2.46c1.292-.247,2.493-.446,3.567-.6a2.467,2.467,0,0,1,2.774,2.949l-.328,1.577A2.474,2.474,0,0,1,15.9,58.1c-.921.142-1.933.318-3,.522a2.257,2.257,0,0,1-.47.047" transform="translate(37.211 193.529)" fill="#1a1311"/><path d="M10.172,60.1a2.475,2.475,0,0,1-2.455-2.2c-.057-.537-.1-1.064-.152-1.6a2.478,2.478,0,0,1,1.6-2.522,54.671,54.671,0,0,1,11.826-2.674,2.5,2.5,0,0,1,1.98.627,2.469,2.469,0,0,1,.8,1.914c-.014.494-.028.978-.033,1.458a2.466,2.466,0,0,1-2.147,2.427,47.014,47.014,0,0,0-10.524,2.4,2.52,2.52,0,0,1-.893.166" transform="translate(28.33 191.536)" fill="#1a1311"/><path d="M12.394,57.893A2.47,2.47,0,0,1,9.924,55.4c0-.527.019-1.059.038-1.6a2.468,2.468,0,0,1,2.151-2.356c1.5-.195,2.9-.337,4.156-.442a2.463,2.463,0,0,1,2.622,2.964l-.323,1.544a2.468,2.468,0,0,1-2.194,1.957c-1.116.1-2.36.233-3.657.4a2.5,2.5,0,0,1-.323.019" transform="translate(37.207 191.197)" fill="#1a1311"/><path d="M10.066,59.36A2.473,2.473,0,0,1,7.6,57.042c-.033-.532-.062-1.064-.09-1.586a2.468,2.468,0,0,1,1.657-2.451,54.8,54.8,0,0,1,12.305-2.631,2.469,2.469,0,0,1,2.707,2.712c-.052.494-.095.983-.133,1.472a2.47,2.47,0,0,1-2.2,2.275,48.088,48.088,0,0,0-10.956,2.384,2.459,2.459,0,0,1-.826.142" transform="translate(28.151 188.819)" fill="#1a1311"/><path d="M12.416,57.087a2.46,2.46,0,0,1-2.455-2.65c.033-.537.081-1.083.138-1.624a2.472,2.472,0,0,1,2.2-2.2c1.543-.157,3.115-.261,4.673-.313a2.392,2.392,0,0,1,1.971.879,2.46,2.46,0,0,1,.527,2.094L19.155,54.8a2.464,2.464,0,0,1-2.318,1.957c-1.344.057-2.74.161-4.156.313a2.557,2.557,0,0,1-.266.014" transform="translate(37.317 188.575)" fill="#1a1311"/><path d="M17.784,45.952a2.427,2.427,0,0,1-.75-.119l-.123-.043,0,0-.024,0v0l-.024,0-.014-.01-.1-.038-.062-.029a2.468,2.468,0,0,1,1.9-4.554l.047.019.043.019a2.473,2.473,0,0,1-.893,4.773" transform="translate(56.912 153.547)" fill="#1a1311"/><path d="M34.873,45.945a2.476,2.476,0,0,1-2.489-2.474,2.432,2.432,0,0,1,1.638-2.308l1.672,4.64a2.358,2.358,0,0,1-.822.142" transform="translate(121.414 154.328)" fill="#1a1311"/><path d="M88.864,167.4a125.425,125.425,0,0,1-16.874-1.04c-9.94-1.368-43.759-6.682-61.749-17.715a2.475,2.475,0,0,1-1.183-2.085c-.133-14.628,5.02-36.906,5.238-37.846L28.269,41.975a2.443,2.443,0,0,1,.86-1.411,2.585,2.585,0,0,1,2.826-.3c1.71.955,4.35,2.251,6.891,3.386a2.474,2.474,0,0,1,1.164,3.424,159.756,159.756,0,0,0-8.53,19.044c2.322,1.235,5.357,2.617,8.539,4.061,1.42.641,2.888,1.306,4.365,1.995a2.474,2.474,0,0,1,1.154,3.377c-1.491,2.869-3.752,7.024-5.571,10.363l-.361.67c2.721,2.075,8.4,6.126,12.794,7.371.917.261,2.284.7,3.913,1.211C60.734,96.577,67.421,98.7,71.2,99.2a2.869,2.869,0,0,1,2.042,1.316c.717,1.14.67,2.584.024,5.034q.6-.235,1.24-.5a1.716,1.716,0,0,1,.166-.062c6.578-2.18,15.288-5.029,19.415-6.2,3.324-.945,9.755-5.552,14.86-9.541q-.071-.135-.128-.271a2.469,2.469,0,0,1,1.216-3.153,25.113,25.113,0,0,1,2.93-1.1c-1.145-2.251-2.356-4.749-3.391-6.882-1.14-2.341-2.118-4.365-2.593-5.2a2.468,2.468,0,0,1,1.51-3.6c2.061-.551,4.455-1.145,6.948-1.762,4.365-1.078,9.209-2.28,12.946-3.453-.993-3.453-2.408-7.8-3.79-12.03-.475-1.458-.945-2.9-1.387-4.274a2.464,2.464,0,0,1,1.5-3.073c2.679-.983,5.224-1.938,7.437-2.8a2.469,2.469,0,0,1,3.144,1.292l23.395,52.175a3.159,3.159,0,0,1,.119.318c4.873,16.679,6.411,26.581,8.534,40.292.408,2.612.836,5.381,1.316,8.373a2.462,2.462,0,0,1-.879,2.308c-12.923,10.486-32.561,15.653-46.761,18.142A190.7,190.7,0,0,1,88.864,167.4M14,145.137C31.465,155.2,63.18,160.164,72.659,161.465c23.608,3.248,69.03-1.363,90.89-18.014-.394-2.46-.75-4.768-1.092-6.967-2.166-13.982-3.6-23.233-8.349-39.5L131.74,47.095c-.993.38-2.033.769-3.1,1.168.214.66.432,1.33.651,2,1.719,5.267,3.5,10.719,4.488,14.542a2.469,2.469,0,0,1-1.558,2.94c-4.108,1.482-10.211,2.992-15.592,4.322-1.339.332-2.655.655-3.9.974.385.784.817,1.672,1.287,2.645,1.453,2.992,3.263,6.72,4.7,9.37a2.471,2.471,0,0,1-.56,3.054c-1.605,1.373-15.848,13.473-22.715,15.425-4.232,1.2-13.763,4.331-19.125,6.112a39.112,39.112,0,0,1-5.785,1.952,2.475,2.475,0,0,1-2.028-.014c-1.995-.959-1.358-2.93-.888-4.369.214-.66.731-2.251,1.016-3.448a143.472,143.472,0,0,1-13.811-3.9c-1.567-.494-2.888-.917-3.771-1.168-6.962-1.976-15.805-9.256-16.181-9.565a2.471,2.471,0,0,1-.594-3.082l1.358-2.5c1.363-2.508,2.978-5.471,4.317-7.988-.665-.3-1.325-.6-1.971-.9a115.612,115.612,0,0,1-10.444-5.11l-8.416,40.212c-.062.271-4.92,21.286-5.115,35.363M32.448,46.093l-1.942,9.275c1.382-3.077,2.831-6.079,3.951-8.3-.689-.328-1.368-.655-2.009-.974" transform="translate(33.951 149.873)" fill="#1a1311"/><path d="M41.354,64.308a9.3,9.3,0,0,1-9.147-7.888A9.311,9.311,0,0,1,39.944,45.8a9.242,9.242,0,0,1,10.567,7.77,9.283,9.283,0,0,1-9.156,10.738m.028-13.682a4.608,4.608,0,0,0-.674.052,4.365,4.365,0,0,0-3.619,4.987v0a4.318,4.318,0,0,0,1.738,2.864,4.254,4.254,0,0,0,3.206.784,4.392,4.392,0,0,0,1.857-7.869,4.205,4.205,0,0,0-2.508-.822" transform="translate(120.337 171.291)" fill="#1a1311"/><path d="M42.535,66.99a10.826,10.826,0,0,1-8.71-17.149A10.685,10.685,0,0,1,40.892,45.5a10.9,10.9,0,0,1,1.667-.128A10.7,10.7,0,0,1,53.15,54.524,10.968,10.968,0,0,1,51.2,62.569a10.693,10.693,0,0,1-8.667,4.422m.024-15.183a4.776,4.776,0,0,0-.679.052A4.371,4.371,0,1,0,46.8,55.507a4.307,4.307,0,0,0-4.246-3.7" transform="translate(119.166 170.109)" fill="#1a1311"/><path d="M40.084,61.377a7.674,7.674,0,0,1-7.461-5.984,2.445,2.445,0,0,1-.057-.522,2.24,2.24,0,0,1-.1-.508,7.639,7.639,0,0,1,15.064-2.346,2.7,2.7,0,0,1,.062.513,2.325,2.325,0,0,1,.1.518,7.691,7.691,0,0,1-6.44,8.24,7.492,7.492,0,0,1-1.168.09" transform="translate(121.617 172.582)" fill="#1a1311"/><path d="M34.857,46.986a2.468,2.468,0,0,1-.831-4.792v0h0q1.624-.577,3.191-1.154a2.474,2.474,0,0,1,3.168,1.472,2.523,2.523,0,0,1,.147.85,2.464,2.464,0,0,1-1.619,2.318l-.062.024c-1.04.38-2.1.76-3.168,1.145a2.549,2.549,0,0,1-.831.142" transform="translate(121.434 153.288)" fill="#1a1311"/><path d="M34.159,47.229a2.469,2.469,0,0,1-2.332-1.657,2.432,2.432,0,0,1-.138-.812,2.475,2.475,0,0,1,1.657-2.332l.048-.014.014,0,.019-.01c1.069-.37,2.132-.746,3.182-1.121a2.469,2.469,0,0,1,1.662,4.649h0c-1.064.38-2.132.76-3.215,1.135l-.081.029a2.432,2.432,0,0,1-.812.138" transform="translate(118.809 154.213)" fill="#1a1311"/><path d="M19.843,46.833a2.471,2.471,0,0,1-.936-.185h0l-.019-.01c-.931-.38-1.871-.784-2.793-1.2l-.033-.014A2.47,2.47,0,0,1,14.6,43.172a2.378,2.378,0,0,1,.218-1.007,2.457,2.457,0,0,1,3.253-1.244q1.361.6,2.717,1.164a2.467,2.467,0,0,1-.94,4.749" transform="translate(54.72 152.604)" fill="#1a1311"/><path d="M20.374,46.949a2.489,2.489,0,0,1-.841-.147l-.014,0c-.883-.323-1.824-.689-2.774-1.078a2.469,2.469,0,1,1,1.871-4.569h0c.888.366,1.762.708,2.593,1.007a2.47,2.47,0,0,1-.841,4.792" transform="translate(57.029 153.595)" fill="#1a1311"/><path d="M49.834,76.452a2.3,2.3,0,0,1-1-.223c-2-.959-1.358-2.93-.888-4.369.214-.66.727-2.251,1.016-3.448-4.137-.826-9.636-2.569-13.811-3.9-1.567-.5-2.888-.917-3.771-1.168-6.962-1.976-15.81-9.256-16.181-9.565a2.469,2.469,0,0,1,2.793-4.051,49.946,49.946,0,0,0,4.93,2.261c.551.228,1.012.418,1.325.56A191.4,191.4,0,0,0,56.478,62.3a2.472,2.472,0,0,1,1.548,3.747s-3.215,5.015-5.979,9.218a2.682,2.682,0,0,1-2.213,1.187" transform="translate(53.618 185.234)" fill="#1a1311"/><path d="M23.261,57.282a2.512,2.512,0,0,1-1.016-.218c-.275-.128-.7-.3-1.211-.513a54.982,54.982,0,0,1-5.485-2.531,2.469,2.469,0,0,1,2.242-4.393l6.492,2.935a2.471,2.471,0,0,1-1.021,4.721" transform="translate(53.619 185.236)" fill="#1a1311"/><path d="M23.762,60.513a2.469,2.469,0,0,1-.784-4.811s2.413-.812,5.8-1.938a2.47,2.47,0,0,1,1.724,4.626,38.046,38.046,0,0,1-6.212,2.066,2.533,2.533,0,0,1-.532.057" transform="translate(79.837 201.101)" fill="#1a1311"/><path d="M24.984,75.229a2.469,2.469,0,0,1-.945-4.749c6.084-2.522,13.545-6.934,20.132-10.828,5.875-3.476,11.422-6.753,15.52-8.458.057-.024.114-.043.171-.062L65.3,49.322a2.469,2.469,0,0,1,2.384,4.217c-1.6,1.373-15.848,13.473-22.715,15.425-4.251,1.206-13.858,4.365-19.206,6.136a2.478,2.478,0,0,1-.779.128" transform="translate(84.414 184.448)" fill="#1a1311"/><path d="M56.578,98.007a2.394,2.394,0,0,1-.518-.052,196.607,196.607,0,0,1-33.092-10.03,2.48,2.48,0,0,1-1.32-3.267c2.5-5.884,5.029-11.465,7.024-15.525-4.108-1.771-10.5-4.664-13.2-6.06a2.492,2.492,0,0,1-1.149-3.153c1.952-4.768,6.236-14.262,7.945-17.439a2.439,2.439,0,0,1,2.973-1.149A23.638,23.638,0,0,0,28.852,42.4a2.455,2.455,0,0,1,1.895,1.676c4.7,14.8,19.363,38.568,27.792,49.971a2.5,2.5,0,0,1,.1,2.821,2.445,2.445,0,0,1-2.061,1.135M27.142,84.281a184.354,184.354,0,0,0,23.67,7.366c-8.525-12.424-19.69-31.312-24.283-44.7-.285-.081-.584-.166-.9-.261C24,50.016,21.453,55.658,19.738,59.666c3.861,1.843,10.349,4.74,13.227,5.913a2.453,2.453,0,0,1,1.382,1.444,2.481,2.481,0,0,1-.128,2c-1.833,3.524-4.417,9.109-7.076,15.254" transform="translate(52.986 154.413)" fill="#1a1311"/><path d="M29.456,89.926a2.447,2.447,0,0,1-1-.214l-6.492-2.94a2.468,2.468,0,0,1-1.32-1.472,2.526,2.526,0,0,1,.176-1.98l1.32-2.427c1.373-2.522,3-5.5,4.346-8.04l-1.98-.9A110.356,110.356,0,0,1,13.836,66.7a2.487,2.487,0,0,1-1.121-2.693c1.268-5.419,7.309-17.943,9.5-22.013a2.434,2.434,0,0,1,3.139-1.083c.9.4,1.809.793,2.712,1.164l.152.066c.874.356,1.748.7,2.584,1a2.438,2.438,0,0,1,1.458,1.453,2.477,2.477,0,0,1-.133,2.066c-1.392,2.584-4.725,9.921-6.82,14.822,3.861,1.843,10.344,4.74,13.217,5.908a2.433,2.433,0,0,1,1.387,1.444,2.474,2.474,0,0,1-.133,2.009C37.715,74.809,34.7,81.382,31.708,88.43a2.485,2.485,0,0,1-1.363,1.325,2.364,2.364,0,0,1-.888.171m-3.063-6.578,1.809.817c2.17-5.02,4.3-9.693,6.031-13.217-.912-.394-1.942-.845-3.006-1.32a2.458,2.458,0,0,1,.959,1.263,2.5,2.5,0,0,1-.147,1.947c-1.5,2.892-3.78,7.076-5.609,10.444Zm-8.4-19.966c1.1.589,2.37,1.211,3.738,1.857-.252-.128-.484-.247-.7-.351a2.485,2.485,0,0,1-1.145-3.153c1.567-3.833,4.64-10.724,6.677-14.927-.066-.028-.133-.052-.195-.081l-.152-.062c-.247-.1-.494-.2-.741-.309a154.339,154.339,0,0,0-7.485,17.026" transform="translate(47.424 152.601)" fill="#1a1311"/><path d="M56.578,98.007a2.394,2.394,0,0,1-.518-.052,196.607,196.607,0,0,1-33.092-10.03,2.48,2.48,0,0,1-1.32-3.267c2.5-5.884,5.029-11.465,7.024-15.525-4.108-1.771-10.5-4.664-13.2-6.06a2.492,2.492,0,0,1-1.149-3.153c1.952-4.768,6.236-14.262,7.945-17.439a2.439,2.439,0,0,1,2.973-1.149A23.638,23.638,0,0,0,28.852,42.4a2.455,2.455,0,0,1,1.895,1.676c4.7,14.8,19.363,38.568,27.792,49.971a2.5,2.5,0,0,1,.1,2.821,2.445,2.445,0,0,1-2.061,1.135M27.142,84.281a184.354,184.354,0,0,0,23.67,7.366c-8.525-12.424-19.69-31.312-24.283-44.7-.285-.081-.584-.166-.9-.261C24,50.016,21.453,55.658,19.738,59.666c3.861,1.843,10.349,4.74,13.227,5.913a2.453,2.453,0,0,1,1.382,1.444,2.481,2.481,0,0,1-.128,2c-1.833,3.524-4.417,9.109-7.076,15.254" transform="translate(52.986 154.413)" fill="#1a1311"/><path d="M29.456,89.926a2.447,2.447,0,0,1-1-.214l-6.492-2.94a2.468,2.468,0,0,1-1.32-1.472,2.526,2.526,0,0,1,.176-1.98l1.32-2.427c1.373-2.522,3-5.5,4.346-8.04l-1.98-.9A110.356,110.356,0,0,1,13.836,66.7a2.487,2.487,0,0,1-1.121-2.693c1.268-5.419,7.309-17.943,9.5-22.013a2.434,2.434,0,0,1,3.139-1.083c.9.4,1.809.793,2.712,1.164l.152.066c.874.356,1.748.7,2.584,1a2.438,2.438,0,0,1,1.458,1.453,2.477,2.477,0,0,1-.133,2.066c-1.392,2.584-4.725,9.921-6.82,14.822,3.861,1.843,10.344,4.74,13.217,5.908a2.433,2.433,0,0,1,1.387,1.444,2.474,2.474,0,0,1-.133,2.009C37.715,74.809,34.7,81.382,31.708,88.43a2.485,2.485,0,0,1-1.363,1.325,2.364,2.364,0,0,1-.888.171m-3.063-6.578,1.809.817c2.17-5.02,4.3-9.693,6.031-13.217-.912-.394-1.942-.845-3.006-1.32a2.458,2.458,0,0,1,.959,1.263,2.5,2.5,0,0,1-.147,1.947c-1.5,2.892-3.78,7.076-5.609,10.444Zm-8.4-19.966c1.1.589,2.37,1.211,3.738,1.857-.252-.128-.484-.247-.7-.351a2.485,2.485,0,0,1-1.145-3.153c1.567-3.833,4.64-10.724,6.677-14.927-.066-.028-.133-.052-.195-.081l-.152-.062c-.247-.1-.494-.2-.741-.309a154.339,154.339,0,0,0-7.485,17.026" transform="translate(47.424 152.601)" fill="#1a1311"/><path d="M56.578,98.007a2.394,2.394,0,0,1-.518-.052,196.607,196.607,0,0,1-33.092-10.03,2.48,2.48,0,0,1-1.32-3.267c2.5-5.884,5.029-11.465,7.024-15.525-4.108-1.771-10.5-4.664-13.2-6.06a2.492,2.492,0,0,1-1.149-3.153c1.952-4.768,6.236-14.262,7.945-17.439a2.439,2.439,0,0,1,2.973-1.149A23.638,23.638,0,0,0,28.852,42.4a2.455,2.455,0,0,1,1.895,1.676c4.7,14.8,19.363,38.568,27.792,49.971a2.5,2.5,0,0,1,.1,2.821,2.445,2.445,0,0,1-2.061,1.135M27.142,84.281a184.354,184.354,0,0,0,23.67,7.366c-8.525-12.424-19.69-31.312-24.283-44.7-.285-.081-.584-.166-.9-.261C24,50.016,21.453,55.658,19.738,59.666c3.861,1.843,10.349,4.74,13.227,5.913a2.453,2.453,0,0,1,1.382,1.444,2.481,2.481,0,0,1-.128,2c-1.833,3.524-4.417,9.109-7.076,15.254" transform="translate(52.986 154.413)" fill="#1a1311"/><path d="M29.456,89.926a2.447,2.447,0,0,1-1-.214l-6.492-2.94a2.468,2.468,0,0,1-1.32-1.472,2.526,2.526,0,0,1,.176-1.98l1.32-2.427c1.373-2.522,3-5.5,4.346-8.04l-1.98-.9A110.356,110.356,0,0,1,13.836,66.7a2.487,2.487,0,0,1-1.121-2.693c1.268-5.419,7.309-17.943,9.5-22.013a2.434,2.434,0,0,1,3.139-1.083c.9.4,1.809.793,2.712,1.164l.152.066c.874.356,1.748.7,2.584,1a2.438,2.438,0,0,1,1.458,1.453,2.477,2.477,0,0,1-.133,2.066c-1.392,2.584-4.725,9.921-6.82,14.822,3.861,1.843,10.344,4.74,13.217,5.908a2.433,2.433,0,0,1,1.387,1.444,2.474,2.474,0,0,1-.133,2.009C37.715,74.809,34.7,81.382,31.708,88.43a2.485,2.485,0,0,1-1.363,1.325,2.364,2.364,0,0,1-.888.171m-3.063-6.578,1.809.817c2.17-5.02,4.3-9.693,6.031-13.217-.912-.394-1.942-.845-3.006-1.32a2.458,2.458,0,0,1,.959,1.263,2.5,2.5,0,0,1-.147,1.947c-1.5,2.892-3.78,7.076-5.609,10.444Zm-8.4-19.966c1.1.589,2.37,1.211,3.738,1.857-.252-.128-.484-.247-.7-.351a2.485,2.485,0,0,1-1.145-3.153c1.567-3.833,4.64-10.724,6.677-14.927-.066-.028-.133-.052-.195-.081l-.152-.062c-.247-.1-.494-.2-.741-.309a154.339,154.339,0,0,0-7.485,17.026" transform="translate(47.424 152.601)" fill="#1a1311"/><path d="M23.747,106.5a2.438,2.438,0,0,1-1.947-.974,2.5,2.5,0,0,1-.09-2.873c2.512-3.828,5.4-8.33,5.88-9.071C38.228,72.617,45,64.519,53.563,54.271c2.194-2.622,4.46-5.333,6.967-8.468a2.45,2.45,0,0,1,1.2-.812c3.077-.936,6.639-2.109,10.591-3.481a2.442,2.442,0,0,1,3.106,1.524,3.126,3.126,0,0,1,.1.4c.38,1.111.75,2.218,1.107,3.291.993,2.968,1.928,5.766,2.626,7.475a2.486,2.486,0,0,1-1.3,3.229c-5.49,2.36-11.46,4.73-18.645,7.4a99.124,99.124,0,0,0,7.964,16.651,2.482,2.482,0,0,1,.252,2.071,2.449,2.449,0,0,1-1.4,1.534c-3.785,1.572-9.19,4.768-14.913,8.15-6.725,3.975-14.347,8.482-20.745,11.137l-.166.062c-3.381,1.121-5.785,1.928-5.789,1.933a2.393,2.393,0,0,1-.769.123M63.859,49.512c-2.351,2.926-4.488,5.481-6.559,7.955-8.378,10.026-15,17.942-25.413,38.488-.038.076-.081.147-.123.218,0,0-.841,1.306-2.028,3.144,5.865-2.574,12.828-6.692,19.011-10.349,4.725-2.793,9.237-5.462,12.956-7.285-3.229-5.77-7.333-14.647-7.727-18.128a2.485,2.485,0,0,1,1.6-2.607c7.067-2.6,12.946-4.9,18.294-7.148-.56-1.567-1.187-3.434-1.871-5.485q-.214-.648-.442-1.311c-2.788.95-5.367,1.79-7.694,2.508" transform="translate(79.857 155.122)" fill="#1a1311"/><path d="M39.415,87.12a2.437,2.437,0,0,1-2.075-1.164c-3.286-5.314-8.7-16.537-9.147-20.559a2.476,2.476,0,0,1,1.6-2.607c7.067-2.6,12.946-4.9,18.289-7.148-.56-1.567-1.187-3.438-1.866-5.485-.4-1.187-.812-2.417-1.23-3.647a2.484,2.484,0,0,1,1.491-3.139c1.154-.4,2.242-.784,3.32-1.168,1.13-.4,2.194-.788,3.239-1.173a2.442,2.442,0,0,1,3.158,1.562c.442,1.373.912,2.807,1.387,4.26,1.719,5.272,3.5,10.719,4.483,14.542a2.485,2.485,0,0,1-1.548,2.959C56.4,65.834,50.3,67.344,44.919,68.674c-1.344.332-2.655.655-3.894.969.375.779.8,1.653,1.268,2.607,1.453,3,3.267,6.734,4.7,9.394a2.51,2.51,0,0,1,.1,2.166,2.448,2.448,0,0,1-1.619,1.415,40.806,40.806,0,0,0-5.015,1.653,2.438,2.438,0,0,1-1.05.242M33.521,66.679a99.918,99.918,0,0,0,6.929,14.9c.28-.095.56-.185.836-.275-1.145-2.251-2.356-4.744-3.386-6.872-1.135-2.337-2.113-4.355-2.584-5.191a2.5,2.5,0,0,1-.133-2.185,2.457,2.457,0,0,1,1.629-1.434c2.061-.556,4.45-1.145,6.943-1.762,4.365-1.078,9.218-2.28,12.956-3.453-.993-3.448-2.408-7.784-3.785-12.006-.2-.622-.4-1.244-.6-1.857-.285.1-.57.2-.86.309-.356.128-.712.256-1.069.38.152.446.3.893.451,1.335.988,2.964,1.923,5.766,2.626,7.475a2.487,2.487,0,0,1-1.306,3.225c-5.49,2.365-11.46,4.735-18.645,7.409" transform="translate(105.64 153.28)" fill="#1a1311"/><path d="M23.747,106.5a2.438,2.438,0,0,1-1.947-.974,2.5,2.5,0,0,1-.09-2.873c2.512-3.828,5.4-8.33,5.88-9.071C38.228,72.617,45,64.519,53.563,54.271c2.194-2.622,4.46-5.333,6.967-8.468a2.45,2.45,0,0,1,1.2-.812c3.077-.936,6.639-2.109,10.591-3.481a2.442,2.442,0,0,1,3.106,1.524,3.126,3.126,0,0,1,.1.4c.38,1.111.75,2.218,1.107,3.291.993,2.968,1.928,5.766,2.626,7.475a2.486,2.486,0,0,1-1.3,3.229c-5.49,2.36-11.46,4.73-18.645,7.4a99.124,99.124,0,0,0,7.964,16.651,2.482,2.482,0,0,1,.252,2.071,2.449,2.449,0,0,1-1.4,1.534c-3.785,1.572-9.19,4.768-14.913,8.15-6.725,3.975-14.347,8.482-20.745,11.137l-.166.062c-3.381,1.121-5.785,1.928-5.789,1.933a2.393,2.393,0,0,1-.769.123M63.859,49.512c-2.351,2.926-4.488,5.481-6.559,7.955-8.378,10.026-15,17.942-25.413,38.488-.038.076-.081.147-.123.218,0,0-.841,1.306-2.028,3.144,5.865-2.574,12.828-6.692,19.011-10.349,4.725-2.793,9.237-5.462,12.956-7.285-3.229-5.77-7.333-14.647-7.727-18.128a2.485,2.485,0,0,1,1.6-2.607c7.067-2.6,12.946-4.9,18.294-7.148-.56-1.567-1.187-3.434-1.871-5.485q-.214-.648-.442-1.311c-2.788.95-5.367,1.79-7.694,2.508" transform="translate(79.857 155.122)" fill="#1a1311"/><path d="M39.415,87.12a2.437,2.437,0,0,1-2.075-1.164c-3.286-5.314-8.7-16.537-9.147-20.559a2.476,2.476,0,0,1,1.6-2.607c7.067-2.6,12.946-4.9,18.289-7.148-.56-1.567-1.187-3.438-1.866-5.485-.4-1.187-.812-2.417-1.23-3.647a2.484,2.484,0,0,1,1.491-3.139c1.154-.4,2.242-.784,3.32-1.168,1.13-.4,2.194-.788,3.239-1.173a2.442,2.442,0,0,1,3.158,1.562c.442,1.373.912,2.807,1.387,4.26,1.719,5.272,3.5,10.719,4.483,14.542a2.485,2.485,0,0,1-1.548,2.959C56.4,65.834,50.3,67.344,44.919,68.674c-1.344.332-2.655.655-3.894.969.375.779.8,1.653,1.268,2.607,1.453,3,3.267,6.734,4.7,9.394a2.51,2.51,0,0,1,.1,2.166,2.448,2.448,0,0,1-1.619,1.415,40.806,40.806,0,0,0-5.015,1.653,2.438,2.438,0,0,1-1.05.242M33.521,66.679a99.918,99.918,0,0,0,6.929,14.9c.28-.095.56-.185.836-.275-1.145-2.251-2.356-4.744-3.386-6.872-1.135-2.337-2.113-4.355-2.584-5.191a2.5,2.5,0,0,1-.133-2.185,2.457,2.457,0,0,1,1.629-1.434c2.061-.556,4.45-1.145,6.943-1.762,4.365-1.078,9.218-2.28,12.956-3.453-.993-3.448-2.408-7.784-3.785-12.006-.2-.622-.4-1.244-.6-1.857-.285.1-.57.2-.86.309-.356.128-.712.256-1.069.38.152.446.3.893.451,1.335.988,2.964,1.923,5.766,2.626,7.475a2.487,2.487,0,0,1-1.306,3.225c-5.49,2.365-11.46,4.735-18.645,7.409" transform="translate(105.64 153.28)" fill="#1a1311"/><path d="M23.747,106.5a2.438,2.438,0,0,1-1.947-.974,2.5,2.5,0,0,1-.09-2.873c2.512-3.828,5.4-8.33,5.88-9.071C38.228,72.617,45,64.519,53.563,54.271c2.194-2.622,4.46-5.333,6.967-8.468a2.45,2.45,0,0,1,1.2-.812c3.077-.936,6.639-2.109,10.591-3.481a2.442,2.442,0,0,1,3.106,1.524,3.126,3.126,0,0,1,.1.4c.38,1.111.75,2.218,1.107,3.291.993,2.968,1.928,5.766,2.626,7.475a2.486,2.486,0,0,1-1.3,3.229c-5.49,2.36-11.46,4.73-18.645,7.4a99.124,99.124,0,0,0,7.964,16.651,2.482,2.482,0,0,1,.252,2.071,2.449,2.449,0,0,1-1.4,1.534c-3.785,1.572-9.19,4.768-14.913,8.15-6.725,3.975-14.347,8.482-20.745,11.137l-.166.062c-3.381,1.121-5.785,1.928-5.789,1.933a2.393,2.393,0,0,1-.769.123M63.859,49.512c-2.351,2.926-4.488,5.481-6.559,7.955-8.378,10.026-15,17.942-25.413,38.488-.038.076-.081.147-.123.218,0,0-.841,1.306-2.028,3.144,5.865-2.574,12.828-6.692,19.011-10.349,4.725-2.793,9.237-5.462,12.956-7.285-3.229-5.77-7.333-14.647-7.727-18.128a2.485,2.485,0,0,1,1.6-2.607c7.067-2.6,12.946-4.9,18.294-7.148-.56-1.567-1.187-3.434-1.871-5.485q-.214-.648-.442-1.311c-2.788.95-5.367,1.79-7.694,2.508" transform="translate(79.857 155.122)" fill="#1a1311"/><path d="M39.415,87.12a2.437,2.437,0,0,1-2.075-1.164c-3.286-5.314-8.7-16.537-9.147-20.559a2.476,2.476,0,0,1,1.6-2.607c7.067-2.6,12.946-4.9,18.289-7.148-.56-1.567-1.187-3.438-1.866-5.485-.4-1.187-.812-2.417-1.23-3.647a2.484,2.484,0,0,1,1.491-3.139c1.154-.4,2.242-.784,3.32-1.168,1.13-.4,2.194-.788,3.239-1.173a2.442,2.442,0,0,1,3.158,1.562c.442,1.373.912,2.807,1.387,4.26,1.719,5.272,3.5,10.719,4.483,14.542a2.485,2.485,0,0,1-1.548,2.959C56.4,65.834,50.3,67.344,44.919,68.674c-1.344.332-2.655.655-3.894.969.375.779.8,1.653,1.268,2.607,1.453,3,3.267,6.734,4.7,9.394a2.51,2.51,0,0,1,.1,2.166,2.448,2.448,0,0,1-1.619,1.415,40.806,40.806,0,0,0-5.015,1.653,2.438,2.438,0,0,1-1.05.242M33.521,66.679a99.918,99.918,0,0,0,6.929,14.9c.28-.095.56-.185.836-.275-1.145-2.251-2.356-4.744-3.386-6.872-1.135-2.337-2.113-4.355-2.584-5.191a2.5,2.5,0,0,1-.133-2.185,2.457,2.457,0,0,1,1.629-1.434c2.061-.556,4.45-1.145,6.943-1.762,4.365-1.078,9.218-2.28,12.956-3.453-.993-3.448-2.408-7.784-3.785-12.006-.2-.622-.4-1.244-.6-1.857-.285.1-.57.2-.86.309-.356.128-.712.256-1.069.38.152.446.3.893.451,1.335.988,2.964,1.923,5.766,2.626,7.475a2.487,2.487,0,0,1-1.306,3.225c-5.49,2.365-11.46,4.735-18.645,7.409" transform="translate(105.64 153.28)" fill="#1a1311"/><path d="M26.4,70.73A7.533,7.533,0,1,1,33.846,63.2,7.5,7.5,0,0,1,26.4,70.73m0-10.111a2.579,2.579,0,1,0,2.55,2.579,2.565,2.565,0,0,0-2.55-2.579" transform="translate(71.092 208.703)" fill="#1a1311"/><path d="M26.4,70.73A7.533,7.533,0,1,1,33.846,63.2,7.5,7.5,0,0,1,26.4,70.73m0-10.111a2.579,2.579,0,1,0,2.55,2.579,2.565,2.565,0,0,0-2.55-2.579" transform="translate(71.092 208.703)" fill="#1a1311"/><path d="M34.783,70.256a7.533,7.533,0,1,1,7.442-7.532,7.495,7.495,0,0,1-7.442,7.532m0-10.111a2.579,2.579,0,1,0,2.55,2.579,2.565,2.565,0,0,0-2.55-2.579" transform="translate(102.507 206.926)" fill="#1a1311"/><path d="M34.783,70.256a7.533,7.533,0,1,1,7.442-7.532,7.495,7.495,0,0,1-7.442,7.532m0-10.111a2.579,2.579,0,1,0,2.55,2.579,2.565,2.565,0,0,0-2.55-2.579" transform="translate(102.507 206.926)" fill="#1a1311"/><path d="M25.589,75.447a7.533,7.533,0,1,1,7.442-7.532,7.5,7.5,0,0,1-7.442,7.532m0-10.111a2.579,2.579,0,1,0,2.55,2.579,2.565,2.565,0,0,0-2.55-2.579" transform="translate(68.037 226.388)" fill="#1a1311"/><path d="M25.589,75.447a7.533,7.533,0,1,1,7.442-7.532,7.5,7.5,0,0,1-7.442,7.532m0-10.111a2.579,2.579,0,1,0,2.55,2.579,2.565,2.565,0,0,0-2.55-2.579" transform="translate(68.037 226.388)" fill="#1a1311"/><path d="M35.708,75.179a7.533,7.533,0,1,1,7.442-7.532,7.495,7.495,0,0,1-7.442,7.532m0-10.111a2.579,2.579,0,1,0,2.546,2.579,2.569,2.569,0,0,0-2.546-2.579" transform="translate(105.975 225.383)" fill="#1a1311"/><path d="M35.708,75.179a7.533,7.533,0,1,1,7.442-7.532,7.495,7.495,0,0,1-7.442,7.532m0-10.111a2.579,2.579,0,1,0,2.546,2.579,2.569,2.569,0,0,0-2.546-2.579" transform="translate(105.975 225.383)" fill="#1a1311"/><path d="M26.4,67.391a7.5,7.5,0,0,1-7.442-7.532,6.98,6.98,0,0,1,.119-1.235,2.451,2.451,0,0,1,2.413-2.066h0a2.455,2.455,0,0,1,2.408,2.071,2.524,2.524,0,0,0,5,0,2.443,2.443,0,0,1,4.83,0A7.457,7.457,0,0,1,26.4,67.391" transform="translate(71.092 212.047)" fill="#1a1311"/><path d="M34.783,66.916a7.5,7.5,0,0,1-7.442-7.532,6.98,6.98,0,0,1,.119-1.235,2.441,2.441,0,0,1,4.825.009,2.525,2.525,0,0,0,5,0,2.442,2.442,0,0,1,4.83,0,7.381,7.381,0,0,1,.114,1.221,7.5,7.5,0,0,1-7.442,7.532" transform="translate(102.507 210.266)" fill="#1a1311"/><path d="M25.589,72.107a7.5,7.5,0,0,1-7.442-7.532,6.979,6.979,0,0,1,.119-1.235,2.441,2.441,0,0,1,4.825,0,2.524,2.524,0,0,0,5,0A2.456,2.456,0,0,1,30.5,61.274h0a2.459,2.459,0,0,1,2.413,2.066,7.466,7.466,0,0,1-7.328,8.767" transform="translate(68.037 229.728)" fill="#1a1311"/><path d="M35.708,71.839a7.5,7.5,0,0,1-7.442-7.532,6.978,6.978,0,0,1,.119-1.235A2.451,2.451,0,0,1,30.8,61.006h0a2.459,2.459,0,0,1,2.408,2.075,2.525,2.525,0,0,0,5,0,2.46,2.46,0,0,1,2.413-2.075h0a2.459,2.459,0,0,1,2.413,2.066,7.466,7.466,0,0,1-7.328,8.767" transform="translate(105.975 228.724)" fill="#1a1311"/><path d="M78.026,45.184C70.275,55,51.877,79.668,45.617,93.74A162.053,162.053,0,0,1,17.141,41.955C36.195,47.749,52.181,49,78.026,45.184" transform="translate(64.265 157.297)" fill="#fff"/><path d="M34.891,43.374a53.013,53.013,0,0,0,6.54,8.363c-1.786,1.672-5.509,7.067-5.913,8.62C36.9,64.6,39.564,71.5,41.379,73.488c-2.37,3.391-7.869,11.56-9.532,15.216a69.452,69.452,0,0,1-8.026-10.861c-.019-4.013,1.6-10.966,2.883-17.225a19.635,19.635,0,0,1-5.975-9.56c2-2.883,7.77-8.05,7.77-8.05,1.482.024,5.048.318,6.392.366" transform="translate(77.717 161.245)" fill="#df2016"/><path d="M35,44.039c-.228,3.253-.522,7.005-3.044,10.225-.636.812-3.652,1.406-6.055,1.1-.309-.038-4.626-.864-4.284-.427a16.157,16.157,0,0,0,1.838,1.814l-.332,1.61c2.835-.831,10.078.826,11.3,15.962.855-1.192,3.448-5.775,3.448-5.775-1.729-2.1-3.286-9.4-3.966-12.058,0,0,2.74-7.575,4.279-8.62S35,44.039,35,44.039" transform="translate(80.968 165.111)" fill="#bb1a12"/><path d="M24.145,69.457l-2.394-.522,3.305-15.577-4.236-7.072L22.915,45l4.488,7.49a1.275,1.275,0,0,1,.152.9Z" transform="translate(78.062 168.725)" fill="#1a1311"/><path d="M28.256,68.436,23.977,53.448a1.236,1.236,0,0,1,.081-.893l3.733-7.613,2.194,1.1-3.524,7.181,4.146,14.523Z" transform="translate(89.714 168.496)" fill="#1a1311"/><path d="M27.263,50.016a11.934,11.934,0,0,1-5.39-1.23l1.088-2.218c2.655,1.33,6.013,1.292,9.446-.109l.917,2.3a16.1,16.1,0,0,1-6.06,1.259" transform="translate(82.006 174.184)" fill="#1a1311"/><path d="M35.943,43.151c-.641-.052-1.287-.109-1.923-.171a84.256,84.256,0,0,1-15.1,15.729c.242.494.494,1,.75,1.5A86.638,86.638,0,0,0,35.943,43.151" transform="translate(70.924 161.14)" fill="#d4d5d5"/><path d="M25.63,43.148c-.736-.014-1.468-.047-2.189-.076a165.789,165.789,0,0,0,16.375,17.5c.323-.456.641-.9.959-1.349A162.627,162.627,0,0,1,25.63,43.148" transform="translate(87.885 161.485)" fill="#d4d5d5"/><path d="M20.573,62.529,19.1,60.544c6.445-4.868,11.574-11.2,16.693-17.8l1.928,1.529c-5.229,6.734-10.472,13.2-17.154,18.256" transform="translate(71.629 160.256)" fill="#1a1311"/><path d="M38.866,61.841c-4.7-3.871-10.325-10.125-15.848-17.61l1.961-1.482c5.4,7.328,10.885,13.426,15.435,17.173Z" transform="translate(86.299 160.274)" fill="#1a1311"/><path d="M79.443,37.815c-9.3,2.2-19.139,6.264-29.911,2.2-4.45,1.135.138,5.034-6.169,8.615-.812.461-3.932,1.767-8.2,3.424l23.39,52.175c10.168-9.3,30.3-30.024,20.892-66.413" transform="translate(131.826 141.776)" fill="#004b9e"/><path d="M54.546,71.561A74.106,74.106,0,0,0,64.4,59.374,122.307,122.307,0,0,1,50.419,68.93l-13.1-23.452C42.341,55.8,48.092,70.236,48.092,70.236l2.36,5.262c.556-.508,1.149-1.064,1.757-1.643.19-.176.385-.366.579-.551.432-.423.879-.855,1.33-1.311.147-.147.285-.275.432-.423Z" transform="translate(139.924 170.506)" fill="#00347d"/><path d="M8.265,94.449c.4,6.15,1.543,12.709,5.053,18.389l7.347-5.547L34.647,40.5C12.606,58.265,6.575,68.585,8.265,94.449" transform="translate(29.985 151.854)" fill="#004b9e"/><path d="M16,49.159c-8.824,10.8-4.5,32.247-4.5,32.247l7.119-34Z" transform="translate(39.15 177.738)" fill="#00347d"/><path d="M71.591,51.827c.494,0,.931,0,1.316-.01,0-.5,0-1.007-.014-1.51-3.358.057-11.308-.057-17.833-2.018-6.122-1.843-13.782-6.9-17-9.142a5.73,5.73,0,0,1-.5,1.477c3.453,2.394,10.9,7.247,17.083,9.1a62.932,62.932,0,0,0,16.955,2.1" transform="translate(140.794 146.77)" fill="#ffc400"/><path d="M74.49,53.275c.038-.5.071-1,.095-1.505-3.833,0-13.369-.242-19.966-2.3-6.24-1.942-13.545-7.456-16.366-9.712a8.465,8.465,0,0,1-1.168.983c2.688,2.18,10.349,8.059,17.1,10.163,6.806,2.118,16.328,2.365,20.308,2.37" transform="translate(139.039 149.064)" fill="#ffc400"/><path d="M38.025,40.107c-.3.161-.8.389-1.477.684,3.063,2.793,11.446,10.03,18.161,12.125s16.969,2.569,21.428,2.679q.1-.741.185-1.5c-4.327-.109-14.647-.584-21.177-2.617C49.1,49.6,41.345,43.075,38.025,40.107" transform="translate(137.026 150.369)" fill="#ffc400"/><path d="M37.385,40.392c-.456.19-.955.389-1.482.608,1.985,2.161,10.586,11.018,21.219,14.433C63.553,57.5,73.237,58,77.967,58.116c.1-.5.18-1,.271-1.506-4.583-.119-14.4-.589-20.669-2.607-9.574-3.077-17.681-10.99-20.184-13.611" transform="translate(134.608 151.437)" fill="#ffc400"/><path d="M18.543,53.049A61.232,61.232,0,0,0,8.327,56.487c.119.494.256.978.394,1.468a57.962,57.962,0,0,1,9.945-3.381c-.043-.489-.085-.993-.123-1.524" transform="translate(31.22 198.891)" fill="#ffc400"/><path d="M10.6,55.053c.712-.18,1.4-.347,2.061-.5L13,52.921c-.8.18-1.653.385-2.527.608.038.532.081,1.035.123,1.525" transform="translate(39.284 198.411)" fill="#ffaf00"/><path d="M18.988,52.262A52.484,52.484,0,0,0,8.165,55.4c.071.508.157,1.012.247,1.52A49.827,49.827,0,0,1,19.031,53.8c-.019-.5-.033-1.012-.043-1.534" transform="translate(30.612 195.941)" fill="#ffc400"/><path d="M10.487,54.257c1.1-.214,2.142-.394,3.092-.541l.332-1.577c-1.045.157-2.213.347-3.467.584.009.522.024,1.035.043,1.534" transform="translate(39.157 195.479)" fill="#ffaf00"/><path d="M19.356,51.607A53.283,53.283,0,0,0,8.077,54.148c.043.508.09,1.021.147,1.539a50.366,50.366,0,0,1,11.094-2.55c0-.5.019-1.012.038-1.529" transform="translate(30.282 193.485)" fill="#ffc400"/><path d="M10.444,53.477c1.335-.176,2.607-.313,3.761-.413l.323-1.548c-1.225.1-2.588.242-4.046.432-.019.518-.033,1.026-.038,1.529" transform="translate(39.157 193.144)" fill="#ffaf00"/><path d="M19.774,50.882A52.857,52.857,0,0,0,8.029,53.39c.024.513.057,1.031.085,1.558A50.85,50.85,0,0,1,19.636,52.43c.038-.513.085-1.031.138-1.548" transform="translate(30.102 190.767)" fill="#ffc400"/><path d="M10.472,52.67c1.591-.171,3.049-.271,4.322-.323l.318-1.529c-1.311.043-2.826.133-4.5.3-.052.518-.1,1.035-.138,1.548" transform="translate(39.262 190.527)" fill="#ffaf00"/><path d="M15.7,41.475l.147.062c-.047-.024-.1-.043-.147-.062" transform="translate(58.863 155.498)" fill="#004b9e"/><path d="M32.9,41.664l.043-.014-.043.014" transform="translate(123.35 156.154)" fill="#004b9e"/><path d="M154.476,94.2,131.082,42.02c-2.223.864-4.782,1.828-7.475,2.816,2.014,6.245,4.588,13.858,5.827,18.66-5.813,2.094-15.715,4.241-22.255,6,1.164,2.061,4.811,10.007,7.414,14.813a45.137,45.137,0,0,0-5.438,1.809l5.438-1.809S99.352,97.372,92.808,99.234c-4.189,1.187-13.293,4.175-19.31,6.169a35.509,35.509,0,0,1-5.794,1.933c-.708,1.078,2.816-7.4,1.221-7.618C63.548,99,53.275,95.392,49.77,94.4,43.226,92.538,34.488,85.3,34.488,85.3c1.952-3.6,5.034-9.213,6.905-12.823-5.785-2.683-11.384-5.044-14.775-7.11,1.111-4.759,6.73-16.689,9.266-21.4-2.793-1.249-5.438-2.565-7.086-3.481l-.066.057L14.75,107.336S9.445,130.1,9.578,144.6c14.556,8.929,41.47,14.718,60.795,17.377,25.242,3.467,72.155-1.776,93.887-19.42-3.021-18.883-4.042-28.718-9.783-48.366" transform="translate(35.9 151.809)" fill="#004b9e"/><path d="M32.7,54.1a6.795,6.795,0,1,0,5.68-7.808A6.811,6.811,0,0,0,32.7,54.1" transform="translate(122.286 173.238)" fill="#1a1311"/><path d="M40.377,51.762l2.911-.451a5.172,5.172,0,0,1-10.2,1.591L36,52.446a2.242,2.242,0,0,0,4.379-.684M37.9,50.228A1.545,1.545,0,1,1,36.61,51.99,1.533,1.533,0,0,1,37.9,50.228m-.109-.7a2.247,2.247,0,0,1,2.479,1.539l2.911-.456a5.173,5.173,0,0,0-10.2,1.591l2.911-.451a2.257,2.257,0,0,1,1.9-2.223" transform="translate(123.566 174.532)" fill="#ffc400"/><path d="M36.12,41.4c-1.054.385-2.128.774-3.21,1.164q1.631-.584,3.21-1.164" transform="translate(123.386 155.235)" fill="#ffc400"/><path d="M32.209,42.807c1.1-.385,2.2-.769,3.282-1.154-1.083.385-2.18.769-3.282,1.154" transform="translate(120.758 156.165)" fill="#ffc400"/><path d="M15.115,41.224h0c.921.413,1.852.812,2.774,1.192-.921-.38-1.852-.779-2.774-1.192" transform="translate(56.669 154.557)" fill="#ffc400"/><path d="M18.424,42.532c-.86-.313-1.771-.665-2.693-1.045.926.38,1.828.731,2.693,1.045" transform="translate(58.979 155.543)" fill="#ffc400"/><path d="M21.313,52.866c-1.111-.5-4.455-1.781-6.492-2.94,0,0,8.739,7.238,15.283,9.095,3.5,1,13.777,4.607,19.154,5.319,1.6.214-1.928,8.7-1.221,7.622,2.755-4.194,5.96-9.2,5.96-9.2A195,195,0,0,1,21.313,52.866Z" transform="translate(55.567 187.182)" fill="#00347d"/><path d="M21.313,52.866h0l-6.492-2.94C16.858,51.085,20.2,52.362,21.313,52.866Z" transform="translate(55.567 187.182)" fill="#00347d"/><path d="M27.613,54.159c-3.386,1.126-5.8,1.933-5.8,1.933a35.4,35.4,0,0,0,5.8-1.933" transform="translate(81.785 203.053)" fill="#00347d"/><path d="M58.692,51.526c-8.544,3.543-24.064,14.48-35.657,19.287,6.017-2,15.126-4.982,19.315-6.174,6.54-1.857,21.78-14.922,21.78-14.922l-5.438,1.809" transform="translate(86.363 186.399)" fill="#00347d"/><path d="M30.543,50.1Z" transform="translate(114.512 187.827)" fill="#00347d"/><path d="M56.578,98.007a2.394,2.394,0,0,1-.518-.052,196.607,196.607,0,0,1-33.092-10.03,2.48,2.48,0,0,1-1.32-3.267c2.5-5.884,5.029-11.465,7.024-15.525-4.108-1.771-10.5-4.664-13.2-6.06a2.492,2.492,0,0,1-1.149-3.153c1.952-4.768,6.236-14.262,7.945-17.439a2.439,2.439,0,0,1,2.973-1.149A23.638,23.638,0,0,0,28.852,42.4a2.455,2.455,0,0,1,1.895,1.676c4.7,14.8,19.363,38.568,27.792,49.971a2.5,2.5,0,0,1,.1,2.821,2.445,2.445,0,0,1-2.061,1.135M27.142,84.281a184.354,184.354,0,0,0,23.67,7.366c-8.525-12.424-19.69-31.312-24.283-44.7-.285-.081-.584-.166-.9-.261C24,50.016,21.453,55.658,19.738,59.666c3.861,1.843,10.349,4.74,13.227,5.913a2.453,2.453,0,0,1,1.382,1.444,2.481,2.481,0,0,1-.128,2c-1.833,3.524-4.417,9.109-7.076,15.254" transform="translate(52.986 154.413)" fill="#1a1311"/><path d="M29.456,89.926a2.447,2.447,0,0,1-1-.214l-6.492-2.94a2.468,2.468,0,0,1-1.32-1.472,2.526,2.526,0,0,1,.176-1.98l1.32-2.427c1.373-2.522,3-5.5,4.346-8.04l-1.98-.9A110.356,110.356,0,0,1,13.836,66.7a2.487,2.487,0,0,1-1.121-2.693c1.268-5.419,7.309-17.943,9.5-22.013a2.434,2.434,0,0,1,3.139-1.083c.9.4,1.809.793,2.712,1.164l.152.066c.874.356,1.748.7,2.584,1a2.438,2.438,0,0,1,1.458,1.453,2.477,2.477,0,0,1-.133,2.066c-1.392,2.584-4.725,9.921-6.82,14.822,3.861,1.843,10.344,4.74,13.217,5.908a2.433,2.433,0,0,1,1.387,1.444,2.474,2.474,0,0,1-.133,2.009C37.715,74.809,34.7,81.382,31.708,88.43a2.485,2.485,0,0,1-1.363,1.325,2.364,2.364,0,0,1-.888.171m-3.063-6.578,1.809.817c2.17-5.02,4.3-9.693,6.031-13.217-.912-.394-1.942-.845-3.006-1.32a2.458,2.458,0,0,1,.959,1.263,2.5,2.5,0,0,1-.147,1.947c-1.5,2.892-3.78,7.076-5.609,10.444Zm-8.4-19.966c1.1.589,2.37,1.211,3.738,1.857-.252-.128-.484-.247-.7-.351a2.485,2.485,0,0,1-1.145-3.153c1.567-3.833,4.64-10.724,6.677-14.927-.066-.028-.133-.052-.195-.081l-.152-.062c-.247-.1-.494-.2-.741-.309a154.339,154.339,0,0,0-7.485,17.026" transform="translate(47.424 152.601)" fill="#1a1311"/><path d="M30.121,65.918c-2.446,4.711-5.666,11.906-8.159,17.762a196.085,196.085,0,0,0,32.689,9.9C46.62,82.716,31.484,58.614,26.488,42.885a27.628,27.628,0,0,1-4-1.178c-1.648,3.059-5.932,12.543-7.836,17.2,3.172,1.638,12.044,5.614,15.473,7.01" transform="translate(54.918 156.368)" fill="#004b9e"/><path d="M27.939,69.734c-1.871,3.609-4.953,9.228-6.905,12.823l6.492,2.935c2.489-5.851,5.713-13.046,8.159-17.757-3.429-1.4-12.305-5.371-15.473-7.01,1.9-4.659,6.188-14.143,7.836-17.206-.864-.309-1.771-.665-2.693-1.04l-.147-.062c-.921-.38-1.857-.779-2.778-1.192-2.531,4.711-8.154,16.641-9.266,21.4,3.4,2.061,8.99,4.422,14.775,7.11" transform="translate(49.355 154.557)" fill="#ffc400"/><path d="M23.747,106.5a2.438,2.438,0,0,1-1.947-.974,2.5,2.5,0,0,1-.09-2.873c2.512-3.828,5.4-8.33,5.88-9.071C38.228,72.617,45,64.519,53.563,54.271c2.194-2.622,4.46-5.333,6.967-8.468a2.45,2.45,0,0,1,1.2-.812c3.077-.936,6.639-2.109,10.591-3.481a2.442,2.442,0,0,1,3.106,1.524,3.126,3.126,0,0,1,.1.4c.38,1.111.75,2.218,1.107,3.291.993,2.968,1.928,5.766,2.626,7.475a2.486,2.486,0,0,1-1.3,3.229c-5.49,2.36-11.46,4.73-18.645,7.4a99.124,99.124,0,0,0,7.964,16.651,2.482,2.482,0,0,1,.252,2.071,2.449,2.449,0,0,1-1.4,1.534c-3.785,1.572-9.19,4.768-14.913,8.15-6.725,3.975-14.347,8.482-20.745,11.137l-.166.062c-3.381,1.121-5.785,1.928-5.789,1.933a2.393,2.393,0,0,1-.769.123M63.859,49.512c-2.351,2.926-4.488,5.481-6.559,7.955-8.378,10.026-15,17.942-25.413,38.488-.038.076-.081.147-.123.218,0,0-.841,1.306-2.028,3.144,5.865-2.574,12.828-6.692,19.011-10.349,4.725-2.793,9.237-5.462,12.956-7.285-3.229-5.77-7.333-14.647-7.727-18.128a2.485,2.485,0,0,1,1.6-2.607c7.067-2.6,12.946-4.9,18.294-7.148-.56-1.567-1.187-3.434-1.871-5.485q-.214-.648-.442-1.311c-2.788.95-5.367,1.79-7.694,2.508" transform="translate(79.857 155.122)" fill="#1a1311"/><path d="M39.415,87.12a2.437,2.437,0,0,1-2.075-1.164c-3.286-5.314-8.7-16.537-9.147-20.559a2.476,2.476,0,0,1,1.6-2.607c7.067-2.6,12.946-4.9,18.289-7.148-.56-1.567-1.187-3.438-1.866-5.485-.4-1.187-.812-2.417-1.23-3.647a2.484,2.484,0,0,1,1.491-3.139c1.154-.4,2.242-.784,3.32-1.168,1.13-.4,2.194-.788,3.239-1.173a2.442,2.442,0,0,1,3.158,1.562c.442,1.373.912,2.807,1.387,4.26,1.719,5.272,3.5,10.719,4.483,14.542a2.485,2.485,0,0,1-1.548,2.959C56.4,65.834,50.3,67.344,44.919,68.674c-1.344.332-2.655.655-3.894.969.375.779.8,1.653,1.268,2.607,1.453,3,3.267,6.734,4.7,9.394a2.51,2.51,0,0,1,.1,2.166,2.448,2.448,0,0,1-1.619,1.415,40.806,40.806,0,0,0-5.015,1.653,2.438,2.438,0,0,1-1.05.242M33.521,66.679a99.918,99.918,0,0,0,6.929,14.9c.28-.095.56-.185.836-.275-1.145-2.251-2.356-4.744-3.386-6.872-1.135-2.337-2.113-4.355-2.584-5.191a2.5,2.5,0,0,1-.133-2.185,2.457,2.457,0,0,1,1.629-1.434c2.061-.556,4.45-1.145,6.943-1.762,4.365-1.078,9.218-2.28,12.956-3.453-.993-3.448-2.408-7.784-3.785-12.006-.2-.622-.4-1.244-.6-1.857-.285.1-.57.2-.86.309-.356.128-.712.256-1.069.38.152.446.3.893.451,1.335.988,2.964,1.923,5.766,2.626,7.475a2.487,2.487,0,0,1-1.306,3.225c-5.49,2.365-11.46,4.735-18.645,7.409" transform="translate(105.64 153.28)" fill="#1a1311"/><path d="M27.613,100.132C39.206,95.326,54.726,84.388,63.27,80.845c-3.514-5.675-8.42-16.238-8.791-19.524,7.527-2.774,14.243-5.4,20.588-8.126-1.016-2.479-2.422-6.9-3.918-11.289l.033-.009c-3.624,1.259-7.29,2.479-10.681,3.51C48.02,61,41,66.8,27.779,92.87c0,0-3.206,5-5.965,9.194,0,0,2.413-.807,5.8-1.933" transform="translate(81.785 157.08)" fill="#004b9e"/><path d="M49.28,55.04c-6.345,2.726-13.06,5.352-20.588,8.121.37,3.286,5.276,13.849,8.791,19.529a44.263,44.263,0,0,1,5.438-1.809c-2.6-4.806-6.25-12.756-7.414-14.818,6.54-1.752,16.442-3.9,22.255-6-1.24-4.8-3.818-12.41-5.832-18.66q-1.574.577-3.21,1.164l-.043.014q-1.631.584-3.282,1.154l-.033.014c1.5,4.388,2.9,8.805,3.918,11.289" transform="translate(107.572 155.235)" fill="#ffc400"/><path d="M25.759,69.253a6.706,6.706,0,1,1,6.625-6.706,6.676,6.676,0,0,1-6.625,6.706m0-10.111a3.405,3.405,0,1,0,3.367,3.405,3.387,3.387,0,0,0-3.367-3.405" transform="translate(71.737 209.359)" fill="#1a1311"/><path d="M29.469,61.242a5,5,0,1,1-5-5.053,5.024,5.024,0,0,1,5,5.053" transform="translate(73.023 210.664)" fill="#ffc400"/><path d="M34.138,68.778a6.706,6.706,0,1,1,6.625-6.706,6.673,6.673,0,0,1-6.625,6.706m0-10.111a3.405,3.405,0,1,0,3.367,3.405,3.387,3.387,0,0,0-3.367-3.405" transform="translate(103.152 207.578)" fill="#1a1311"/><path d="M37.849,60.767a5,5,0,1,1-5-5.053,5.024,5.024,0,0,1,5,5.053" transform="translate(104.442 208.883)" fill="#ffc400"/><path d="M24.944,73.969a6.706,6.706,0,1,1,6.625-6.706,6.676,6.676,0,0,1-6.625,6.706m0-10.111a3.405,3.405,0,1,0,3.367,3.405,3.387,3.387,0,0,0-3.367-3.405" transform="translate(68.682 227.04)" fill="#1a1311"/><path d="M28.654,65.958a5,5,0,1,1-5-5.053,5.024,5.024,0,0,1,5,5.053" transform="translate(69.968 228.345)" fill="#ffc400"/><path d="M35.063,73.7A6.706,6.706,0,1,1,41.688,67,6.673,6.673,0,0,1,35.063,73.7m0-10.111A3.405,3.405,0,1,0,38.426,67a3.391,3.391,0,0,0-3.362-3.405" transform="translate(106.62 226.039)" fill="#1a1311"/><path d="M38.773,65.69a5,5,0,1,1-5-5.053,5.024,5.024,0,0,1,5,5.053" transform="translate(107.906 227.34)" fill="#ffc400"/><path d="M24.473,61.31a5.008,5.008,0,0,1-4.915-4.232,5.3,5.3,0,0,0-.081.826,5,5,0,1,0,9.992,0,5.3,5.3,0,0,0-.081-.826,5.008,5.008,0,0,1-4.915,4.232" transform="translate(73.023 213.997)" fill="#ffaf00"/><path d="M32.853,60.836A5.008,5.008,0,0,1,27.938,56.6a5.3,5.3,0,0,0-.081.826,5,5,0,1,0,9.992,0,5.3,5.3,0,0,0-.081-.826,5.008,5.008,0,0,1-4.915,4.232" transform="translate(104.442 212.22)" fill="#ffaf00"/><path d="M23.658,66.027a5.008,5.008,0,0,1-4.915-4.232,5.3,5.3,0,0,0-.081.826,5,5,0,1,0,9.992,0,5.3,5.3,0,0,0-.081-.826,5.008,5.008,0,0,1-4.915,4.232" transform="translate(69.968 231.682)" fill="#ffaf00"/><path d="M33.777,65.759a5.008,5.008,0,0,1-4.915-4.232,5.3,5.3,0,0,0-.081.826,5,5,0,1,0,9.992,0,5.3,5.3,0,0,0-.081-.826,5.008,5.008,0,0,1-4.915,4.232" transform="translate(107.906 230.677)" fill="#ffaf00"/><path d="M11.081,91.031A1.01,1.01,0,0,1,10.82,91a1.074,1.074,0,0,1-.769-1.3L20.613,47.091a1.061,1.061,0,1,1,2.056.522L12.107,90.219a1.062,1.062,0,0,1-1.026.812" transform="translate(37.561 173.514)" fill="#1a1311"/><path d="M55.732,88.974a1.063,1.063,0,0,1-1.012-.76,221.1,221.1,0,0,0-17.358-41.1,1.075,1.075,0,0,1,.423-1.458,1.049,1.049,0,0,1,1.434.427,223.437,223.437,0,0,1,17.529,41.5,1.076,1.076,0,0,1-.708,1.339.974.974,0,0,1-.309.047" transform="translate(139.58 170.683)" fill="#1a1311"/></g></g></g></svg>